<svg width="204" height="61" viewBox="0 0 204 61" fill="none" xmlns="http://www.w3.org/2000/svg">
<g clip-path="url(#clip0_1136_184)">
<mask id="mask0_1136_184" style="mask-type:luminance" maskUnits="userSpaceOnUse" x="0" y="0" width="204" height="61">
<path d="M0.184326 0.406738H203.184V60.6665H0.184326V0.406738Z" fill="white"/>
</mask>
<g mask="url(#mask0_1136_184)">
<path fill-rule="evenodd" clip-rule="evenodd" d="M195.666 60.6665H7.70323C3.56766 60.6665 0.184326 57.2769 0.184326 53.1341V7.93911C0.184326 3.79631 3.56766 0.406738 7.70323 0.406738H195.666C199.801 0.406738 203.184 3.79631 203.184 7.93911V53.1341C203.184 57.2769 199.801 60.6665 195.666 60.6665Z" fill="black"/>
</g>
<mask id="mask1_1136_184" style="mask-type:luminance" maskUnits="userSpaceOnUse" x="0" y="0" width="204" height="61">
<path d="M0.184326 0.406738H203.184V60.6664H0.184326V0.406738Z" fill="white"/>
</mask>
<g mask="url(#mask1_1136_184)">
<path fill-rule="evenodd" clip-rule="evenodd" d="M195.666 1.61117C199.148 1.61117 201.981 4.45012 201.981 7.93911V53.1341C201.981 56.6231 199.148 59.4617 195.666 59.4617H7.70323C4.22065 59.4617 1.38804 56.6231 1.38804 53.1341V7.93911C1.38804 4.45012 4.22065 1.61117 7.70323 1.61117H195.666ZM195.666 0.406738H7.70323C3.56766 0.406738 0.184326 3.79631 0.184326 7.93911V53.1341C0.184326 57.2769 3.56766 60.6665 7.70323 60.6665H195.666C199.801 60.6665 203.184 57.2769 203.184 53.1341V7.93911C203.184 3.79631 199.801 0.406738 195.666 0.406738Z" fill="#A2A2A1"/>
</g>
<path fill-rule="evenodd" clip-rule="evenodd" d="M102.642 33.1747C99.105 33.1747 96.2227 35.8687 96.2227 39.5821C96.2227 43.2711 99.105 45.9896 102.642 45.9896C106.18 45.9896 109.062 43.2711 109.062 39.5821C109.062 35.8687 106.18 33.1747 102.642 33.1747ZM102.642 43.4655C100.705 43.4655 99.0324 41.8633 99.0324 39.5821C99.0324 37.2765 100.705 35.6992 102.642 35.6992C104.58 35.6992 106.251 37.2765 106.251 39.5821C106.251 41.8633 104.58 43.4655 102.642 43.4655ZM88.6377 33.1747C85.0995 33.1747 82.2172 35.8687 82.2172 39.5821C82.2172 43.2711 85.0995 45.9896 88.6377 45.9896C92.174 45.9896 95.057 43.2711 95.057 39.5821C95.057 35.8687 92.174 33.1747 88.6377 33.1747ZM88.6377 43.4655C86.699 43.4655 85.0273 41.8633 85.0273 39.5821C85.0273 37.2765 86.699 35.6992 88.6377 35.6992C90.5752 35.6992 92.2469 37.2765 92.2469 39.5821C92.2469 41.8633 90.5752 43.4655 88.6377 43.4655ZM71.9774 35.1407V37.8591H78.4696C78.2757 39.3878 77.767 40.5041 76.9919 41.2811C76.0468 42.2271 74.5686 43.2711 71.9774 43.2711C67.9798 43.2711 64.8551 40.0435 64.8551 36.0389C64.8551 32.0343 67.9798 28.8059 71.9774 28.8059C74.1333 28.8059 75.7077 29.6556 76.8704 30.7478L78.785 28.8301C77.1614 27.2769 75.0055 26.0879 71.9774 26.0879C66.5013 26.0879 61.8988 30.5535 61.8988 36.0389C61.8988 41.5236 66.5013 45.9896 71.9774 45.9896C74.9322 45.9896 77.1614 45.0183 78.9053 43.1984C80.6981 41.4023 81.2556 38.8782 81.2556 36.8392C81.2556 36.2088 81.2067 35.6265 81.1098 35.1407H71.9774ZM140.108 37.2516C139.575 35.8205 137.952 33.1747 134.633 33.1747C131.338 33.1747 128.601 35.7715 128.601 39.5821C128.601 43.174 131.315 45.9896 134.948 45.9896C137.879 45.9896 139.575 44.1938 140.278 43.1499L138.098 41.6935C137.371 42.7616 136.378 43.4655 134.948 43.4655C133.519 43.4655 132.501 42.8098 131.848 41.5236L140.399 37.9804L140.108 37.2516ZM131.387 39.3878C131.315 36.9119 133.302 35.6502 134.73 35.6502C135.845 35.6502 136.789 36.2088 137.105 37.0091L131.387 39.3878ZM124.435 45.6009H127.244V26.7666H124.435V45.6009ZM119.831 34.6066H119.734C119.105 33.8545 117.893 33.1747 116.367 33.1747C113.169 33.1747 110.238 35.9907 110.238 39.6066C110.238 43.1981 113.169 45.9892 116.367 45.9892C117.893 45.9892 119.104 45.3094 119.734 44.5336H119.831V45.4548C119.831 47.9073 118.523 49.2172 116.415 49.2172C114.696 49.2172 113.63 47.9796 113.194 46.936L110.747 47.9551C111.449 49.6533 113.314 51.7417 116.416 51.7417C119.711 51.7417 122.497 49.7994 122.497 45.0665V33.563H119.831L119.831 34.6066ZM116.609 43.4655C114.671 43.4655 113.048 41.8388 113.048 39.6066C113.048 37.3488 114.671 35.6992 116.609 35.6992C118.523 35.6992 120.025 37.3488 120.025 39.6066C120.025 41.8388 118.523 43.4655 116.609 43.4655ZM153.271 26.7677H146.548V45.602H149.353V38.4666H153.271C156.381 38.4666 159.438 36.2118 159.438 32.6177C159.438 29.0248 156.381 26.7677 153.271 26.7677ZM153.344 35.845H149.353V29.3893H153.344C155.441 29.3893 156.632 31.1289 156.632 32.617C156.632 34.0767 155.441 35.845 153.344 35.845ZM170.685 33.1401C168.653 33.1401 166.549 34.0372 165.679 36.0238L168.169 37.0656C168.701 36.0238 169.692 35.6849 170.733 35.6849C172.184 35.6849 173.659 36.5564 173.683 38.1077V38.3013C173.175 38.0105 172.087 37.5744 170.757 37.5744C168.071 37.5744 165.339 39.0522 165.339 41.8144C165.339 44.3343 167.541 45.9579 170.007 45.9579C171.893 45.9579 172.935 45.1098 173.586 44.1159H173.683V45.5708H176.393V38.3495C176.393 35.0058 173.9 33.1401 170.685 33.1401ZM170.345 43.4621C169.428 43.4621 168.145 43.0015 168.145 41.8626C168.145 40.4092 169.742 39.8518 171.12 39.8518C172.353 39.8518 172.935 40.1177 173.683 40.4815C173.465 42.2264 171.966 43.4621 170.345 43.4621ZM186.259 33.5521L183.042 41.7172H182.946L179.608 33.5521H176.585L181.593 44.964L178.737 51.3127H181.664L189.379 33.5529L186.259 33.5521ZM160.985 45.6016H163.791V26.7673H160.985V45.6016Z" fill="white"/>
<path fill-rule="evenodd" clip-rule="evenodd" d="M31.3331 29.6688L15.3246 46.692C15.3254 46.6954 15.3265 46.6984 15.3273 46.7018C15.8182 48.5506 17.5035 49.9117 19.5034 49.9117C20.303 49.9117 21.0538 49.6952 21.6973 49.3148L21.7485 49.2846L39.7689 38.867L31.3331 29.6688Z" fill="#EB3131"/>
<path fill-rule="evenodd" clip-rule="evenodd" d="M47.5297 26.7705L47.5143 26.76L39.7345 22.2417L30.9694 30.0554L39.765 38.866L47.5038 34.3926C48.8605 33.6589 49.7815 32.2259 49.7815 30.5733C49.7815 28.9327 48.8729 27.5068 47.5297 26.7705Z" fill="#F6B60B"/>
<path fill-rule="evenodd" clip-rule="evenodd" d="M15.3225 14.3823C15.2263 14.7379 15.1755 15.1103 15.1755 15.4971V45.5784C15.1755 45.9644 15.2255 46.3381 15.3233 46.6921L31.8839 30.1043L15.3225 14.3823Z" fill="#5778C5"/>
<path fill-rule="evenodd" clip-rule="evenodd" d="M31.4515 30.5377L39.738 22.2385L21.7379 11.7832C21.0834 11.3904 20.3199 11.1641 19.503 11.1641C17.5027 11.1641 15.8152 12.5274 15.3242 14.3781C15.3235 14.38 15.3235 14.3811 15.3235 14.3826L31.4515 30.5377Z" fill="#3BAD49"/>
<path fill-rule="evenodd" clip-rule="evenodd" d="M114.99 14.3439L114.94 12.5949H114.99L119.59 19.9909H120.805V10.9234H119.642V16.2292L119.691 17.9783H119.642L115.243 10.9234H113.827V19.9909H114.99V14.3439ZM105.098 12.8608C105.767 12.1783 106.59 11.8371 107.577 11.8371C108.561 11.8371 109.383 12.1783 110.041 12.8608C110.711 13.5319 111.04 14.4072 111.04 15.4572C111.04 16.5094 110.711 17.3828 110.041 18.0536C109.383 18.736 108.561 19.0799 107.577 19.0799C106.59 19.0799 105.767 18.736 105.098 18.0536C104.442 17.3685 104.113 16.5094 104.113 15.4572C104.113 14.4072 104.442 13.5458 105.098 12.8608ZM110.887 12.103C109.99 11.178 108.89 10.7212 107.577 10.7212C106.261 10.7212 105.161 11.1777 104.264 12.0887C103.366 12.9881 102.925 14.1157 102.925 15.4572C102.925 16.7987 103.366 17.9267 104.264 18.8257C105.161 19.7367 106.261 20.1935 107.577 20.1935C108.878 20.1935 109.99 19.7367 110.887 18.8257C111.785 17.9267 112.227 16.7991 112.227 15.4572C112.227 14.1273 111.785 13.002 110.887 12.103ZM99.1511 12.0394V10.9234H92.9318V12.0394H95.4599V19.9909H96.623V12.0394H99.1511ZM90.3116 19.9909H91.4747V10.9234H90.3116V19.9909ZM85.8437 12.0394V10.9234H79.6244V12.0394H82.1529V19.9909H83.3156V12.0394H85.8437ZM73.1502 10.9234V19.9909H78.4342V18.8772H74.3133V16.001H78.0305V14.9133H74.3133V12.0394H78.4342V10.9234H73.1502ZM71.451 15.1416H67.0643V16.2292H70.3514C70.2619 17.1166 69.9097 17.8133 69.315 18.3195C68.7207 18.8257 67.9617 19.0799 67.0643 19.0799C66.0798 19.0799 65.2456 18.7364 64.5622 18.0536C63.8923 17.3568 63.5517 16.4951 63.5517 15.4572C63.5517 14.4192 63.8923 13.5575 64.5622 12.8611C65.2456 12.1783 66.0798 11.8371 67.0643 11.8371C67.5696 11.8371 68.0511 11.9241 68.4928 12.1147C68.9346 12.3053 69.2894 12.5715 69.5665 12.9127L70.4007 12.077C70.0225 11.6462 69.5432 11.317 68.9485 11.0767C68.3541 10.8364 67.7338 10.7212 67.0639 10.7212C65.7508 10.7212 64.637 11.178 63.7276 12.0891C62.8186 13.002 62.3626 14.1273 62.3626 15.4572C62.3626 16.787 62.8186 17.915 63.7276 18.826C64.637 19.7367 65.7508 20.1935 67.0639 20.1935C68.4432 20.1935 69.5428 19.751 70.3886 18.8516C71.1337 18.1033 71.5142 17.0909 71.5142 15.8248C71.5142 15.6105 71.4886 15.3815 71.451 15.1416Z" fill="white"/>
<path fill-rule="evenodd" clip-rule="evenodd" d="M114.99 14.3439L114.94 12.5949H114.99L119.59 19.9909H120.805V10.9234H119.642V16.2292L119.691 17.9783H119.642L115.243 10.9234H113.827V19.9909H114.99V14.3439ZM105.098 12.8608C105.767 12.1783 106.59 11.8371 107.577 11.8371C108.561 11.8371 109.383 12.1783 110.041 12.8608C110.711 13.5319 111.04 14.4072 111.04 15.4572C111.04 16.5094 110.711 17.3828 110.041 18.0536C109.383 18.736 108.561 19.0799 107.577 19.0799C106.59 19.0799 105.767 18.736 105.098 18.0536C104.442 17.3685 104.113 16.5094 104.113 15.4572C104.113 14.4072 104.442 13.5458 105.098 12.8608ZM110.887 12.103C109.99 11.178 108.89 10.7212 107.577 10.7212C106.261 10.7212 105.161 11.1777 104.264 12.0887C103.366 12.9881 102.925 14.1157 102.925 15.4572C102.925 16.7987 103.366 17.9267 104.264 18.8257C105.161 19.7367 106.261 20.1935 107.577 20.1935C108.878 20.1935 109.99 19.7367 110.887 18.8257C111.785 17.9267 112.227 16.7991 112.227 15.4572C112.227 14.1273 111.785 13.002 110.887 12.103ZM99.1511 12.0394V10.9234H92.9318V12.0394H95.4599V19.9909H96.623V12.0394H99.1511ZM90.3116 19.9909H91.4747V10.9234H90.3116V19.9909ZM85.8437 12.0394V10.9234H79.6244V12.0394H82.1529V19.9909H83.3156V12.0394H85.8437ZM73.1502 10.9234V19.9909H78.4342V18.8772H74.3133V16.001H78.0305V14.9133H74.3133V12.0394H78.4342V10.9234H73.1502ZM71.451 15.1416H67.0643V16.2292H70.3514C70.2619 17.1166 69.9097 17.8133 69.315 18.3195C68.7207 18.8257 67.9617 19.0799 67.0643 19.0799C66.0798 19.0799 65.2456 18.7364 64.5622 18.0536C63.8923 17.3568 63.5517 16.4951 63.5517 15.4572C63.5517 14.4192 63.8923 13.5575 64.5622 12.8611C65.2456 12.1783 66.0798 11.8371 67.0643 11.8371C67.5696 11.8371 68.0511 11.9241 68.4928 12.1147C68.9346 12.3053 69.2894 12.5715 69.5665 12.9127L70.4007 12.077C70.0225 11.6462 69.5432 11.317 68.9485 11.0767C68.3541 10.8364 67.7338 10.7212 67.0639 10.7212C65.7508 10.7212 64.637 11.178 63.7276 12.0891C62.8186 13.002 62.3626 14.1273 62.3626 15.4572C62.3626 16.787 62.8186 17.915 63.7276 18.826C64.637 19.7367 65.7508 20.1935 67.0639 20.1935C68.4432 20.1935 69.5428 19.751 70.3886 18.8516C71.1337 18.1033 71.5142 17.0909 71.5142 15.8248C71.5142 15.6105 71.4886 15.3815 71.451 15.1416Z" stroke="white" stroke-width="0.5"/>
</g>
<defs>
<clipPath id="clip0_1136_184">
<rect width="203" height="60.2598" fill="white" transform="translate(0.184326 0.406738)"/>
</clipPath>
</defs>
</svg>
