<svg width="423" height="412" viewBox="0 0 423 412" fill="none" xmlns="http://www.w3.org/2000/svg">
<path d="M381.924 771.519C382.385 772.214 383.077 772.677 383.538 773.371C384.691 774.529 385.152 775.687 385.382 777.539H369.936C369.474 774.298 370.627 771.287 373.163 769.898C374.316 769.203 375.469 768.972 376.622 768.972C378.696 768.972 380.541 769.667 381.924 771.519ZM395.757 747.669C392.53 747.206 389.994 748.364 387.457 750.216C386.305 751.143 385.844 752.069 385.613 753.227C383.538 762.489 391.607 768.046 397.602 768.74C401.06 769.203 406.132 764.804 406.363 761.331C407.054 756.005 405.441 751.837 401.06 748.596C399.677 747.669 398.293 747.669 396.91 747.669H396.218H395.757ZM408.207 746.28C413.049 750.448 413.51 756.005 412.357 762.025C410.513 770.361 402.904 775.455 394.605 773.371C386.996 771.287 380.08 764.341 380.541 755.31C380.541 749.29 383.308 745.585 388.841 743.501C390.685 742.807 392.53 742.344 394.374 742.112C395.296 741.88 396.218 741.881 397.141 741.881C401.291 741.649 404.979 743.501 408.207 746.28ZM336.967 739.102C342.039 739.102 345.266 742.807 345.497 748.827C345.728 753.227 339.964 757.857 335.583 757.857C329.819 757.857 326.131 753.921 326.131 747.206C325.208 742.575 331.433 739.102 336.967 739.102ZM341.808 762.952C347.572 761.562 351.03 757.394 351.261 751.374C351.261 748.364 350.8 745.585 349.877 742.807C348.725 739.565 346.419 737.481 343.191 736.323C342.269 736.092 341.347 735.629 340.425 735.166C337.658 734.008 334.661 733.776 331.894 735.166C330.05 736.092 327.975 736.555 326.131 737.713C322.442 740.26 321.058 743.501 321.058 747.901C321.289 755.542 324.747 760.173 332.355 762.489C334.2 763.183 336.275 763.415 338.119 763.415C339.503 763.415 340.655 763.183 341.808 762.952ZM344.114 730.766C346.65 731.692 349.416 732.619 351.491 734.703C355.411 738.639 356.563 743.27 356.563 748.596C356.563 749.985 356.563 751.143 356.333 752.532C355.872 755.773 355.411 759.015 353.336 761.562C349.877 765.73 345.266 768.509 339.964 769.203C329.589 770.361 318.753 762.257 316.908 751.837C315.525 743.733 318.061 737.25 324.747 732.619C328.206 730.303 331.894 729.377 335.583 729.377C338.119 729.377 341.116 729.84 344.114 730.766ZM349.416 774.066C353.105 773.371 356.333 771.056 357.947 767.814C360.022 763.646 362.327 759.478 363.249 754.847C364.633 747.901 363.48 741.649 359.561 736.092C357.486 732.85 355.18 729.84 351.722 727.756C349.186 726.135 346.419 725.209 343.422 725.209C340.886 724.977 338.58 725.209 336.044 724.977C333.278 724.746 330.972 726.135 328.667 727.293C324.747 729.145 320.828 730.998 317.37 733.776C312.989 737.25 309.992 741.417 309.761 746.975C309.531 754.153 311.145 760.636 316.447 765.962C322.672 772.214 330.511 774.761 339.041 775.687C342.5 774.992 345.958 774.761 349.416 774.066ZM346.189 719.42C356.794 722.893 365.094 729.145 368.552 740.723C371.088 749.522 371.319 758.321 368.091 766.888C366.477 771.056 363.941 774.529 360.713 777.308H318.292C309.761 770.824 304.689 760.636 305.381 748.132C306.073 732.387 314.142 725.672 327.744 721.967C328.897 721.736 330.281 721.273 331.433 720.809C334.661 719.652 337.889 718.726 341.347 718.726C342.73 718.726 344.344 718.957 346.189 719.42ZM404.518 700.665C407.285 703.443 408.899 706.685 407.516 710.621C406.363 713.631 402.443 716.178 398.755 716.178C394.605 716.178 391.607 714.094 390.455 710.158C389.994 709 389.763 707.843 389.532 706.453C388.841 702.98 390.916 699.507 394.143 698.117C395.527 697.654 396.68 697.423 397.832 697.423C400.368 697.654 402.443 698.812 404.518 700.665ZM357.486 697.423C359.1 697.423 360.483 698.812 360.483 700.433C360.483 702.054 358.638 704.138 357.255 704.138C355.641 704.138 354.489 702.517 354.489 700.665C354.489 699.044 355.872 697.423 357.486 697.423ZM328.667 695.339C331.664 696.034 333.739 697.886 335.583 700.202C337.889 703.212 338.58 706.685 336.967 710.39C335.353 713.863 332.125 715.252 328.667 715.484C325.208 715.484 322.211 713.863 319.906 711.547C316.909 708.537 316.447 703.212 318.292 699.738C319.906 696.728 322.903 695.107 326.131 695.107C326.822 695.107 327.744 695.107 328.667 695.339ZM399.446 721.504C404.057 720.346 407.977 718.262 411.435 714.789C416.046 710.158 415.124 700.433 408.207 698.117C406.593 697.654 405.21 696.728 403.596 696.034C398.524 693.718 393.913 694.413 389.071 696.96C384.921 699.275 383.769 702.749 383.077 705.99C383.077 710.158 383.999 712.937 385.613 715.715C387.919 719.652 392.069 721.736 396.449 721.736C397.371 721.736 398.293 721.736 399.446 721.504ZM400.368 687.466C407.977 687.698 414.202 690.939 418.813 696.96C426.19 706.453 421.81 723.125 410.513 728.451C406.824 730.071 402.904 730.998 398.985 732.155C391.377 734.008 385.382 731.461 380.541 725.672C376.16 720.81 374.547 714.789 374.547 709.232C374.085 699.044 380.541 690.476 389.071 688.161C391.377 687.466 393.913 687.466 396.218 687.466C397.832 687.235 399.216 687.235 400.368 687.466ZM365.786 701.822C365.786 701.128 365.786 700.433 365.555 699.738C365.094 695.802 362.788 693.718 359.1 692.792C355.872 691.866 353.105 692.097 350.569 694.644C348.955 696.265 348.955 698.118 348.725 699.97C348.725 704.601 351.261 708.769 354.719 710.158C355.872 710.621 357.025 710.853 357.947 710.853C362.558 710.853 366.247 706.916 365.786 701.822ZM360.713 686.54C363.019 687.466 364.863 688.624 366.708 690.245C371.549 694.413 373.394 700.433 371.319 705.759C369.244 712.011 364.633 715.252 357.255 715.252C357.025 715.252 356.333 715.252 355.641 715.021C349.186 713.631 345.266 709.232 343.422 703.212C341.578 697.423 344.114 692.56 348.494 688.855C350.8 686.772 353.566 685.614 356.563 685.614C357.947 685.845 359.33 686.077 360.713 686.54ZM416.738 677.047C416.738 674.268 414.893 672.184 412.127 671.952C409.36 671.952 407.977 673.11 407.977 675.657C407.977 678.436 409.821 680.751 412.127 680.751C414.202 680.751 416.738 678.667 416.738 677.047ZM421.579 676.815C421.81 680.751 417.429 685.151 413.049 685.614C408.438 686.077 402.443 680.983 402.904 676.12C402.674 671.489 406.593 667.553 411.665 667.321H412.127C417.66 667.09 421.349 670.795 421.579 676.815ZM331.433 680.52C335.583 680.52 339.041 677.278 339.041 673.342C339.041 669.868 335.353 666.858 331.433 666.858C327.975 666.858 324.056 669.637 324.056 672.415C324.056 677.047 327.053 680.52 331.433 680.52ZM329.589 661.764C333.508 661.764 337.197 663.153 340.655 665.006C341.116 665.237 341.578 665.701 342.039 666.164C344.805 670.331 345.958 674.731 343.883 679.594C341.808 683.993 337.889 686.077 333.508 685.845C326.592 685.845 322.211 683.067 320.367 677.51C319.906 676.12 319.675 674.731 319.445 673.342C318.522 667.321 323.133 661.996 329.589 661.764ZM374.085 661.301C376.852 661.301 380.08 657.596 380.08 654.586C380.08 650.881 377.313 647.408 374.777 647.408C371.319 647.408 368.552 650.418 368.783 654.123C368.783 657.828 371.319 661.301 374.085 661.301ZM372.472 640.925H373.394C382.385 641.156 387.919 646.019 387.919 656.67C387.919 663.385 381.924 668.711 374.316 668.942C365.786 669.174 360.252 662.922 360.252 653.197C360.022 646.25 363.711 640.925 372.472 640.925ZM383.769 673.805C387.919 672.184 390.685 669.405 391.607 665.237C392.53 661.764 393.913 658.522 393.452 654.818C392.991 649.492 390.455 645.324 386.766 641.851C379.619 635.367 368.552 634.441 360.252 639.304C359.1 639.998 358.408 640.693 357.486 641.619C351.952 649.029 351.952 658.986 356.333 666.627C358.177 669.637 360.713 672.415 363.941 674.499C366.247 676.12 368.783 675.889 372.01 675.889C375.699 675.426 379.849 675.194 383.769 673.805ZM390.916 638.378C399.216 646.945 403.135 656.67 398.755 668.711C396.449 674.963 392.53 680.057 386.535 682.835C383.077 684.456 379.158 684.456 375.699 684.688C373.855 684.688 372.241 684.456 370.858 684.456C366.016 683.993 361.405 682.372 357.947 679.13C350.339 671.721 345.728 662.922 347.341 651.807C348.264 644.629 350.8 638.841 357.486 635.599C360.713 633.978 363.711 631.663 367.399 631.431C368.783 631.431 370.166 631.2 371.549 631.2C378.466 630.968 385.382 632.589 390.916 638.378ZM332.817 635.831C332.817 638.609 329.589 641.156 326.131 641.156C323.364 641.156 321.289 639.072 321.289 636.062C321.289 632.82 323.825 630.042 327.053 630.042C330.05 630.042 332.817 632.589 332.817 635.831ZM421.579 639.304C421.349 644.861 418.351 647.64 412.818 647.64C408.207 647.64 402.904 643.009 403.135 638.841C403.366 633.052 406.593 629.116 412.818 628.884H413.049C417.199 628.884 421.81 633.747 421.579 639.304ZM337.889 635.599C338.119 631.894 335.583 629.347 333.047 627.032C331.203 625.411 328.897 624.253 326.131 624.485C322.442 624.716 319.445 625.874 317.37 629.347C314.834 633.978 317.6 642.545 322.211 644.861C323.364 645.324 324.517 645.787 325.9 645.787C331.433 645.556 337.658 641.619 337.889 635.599ZM327.283 619.622C329.358 619.622 331.664 619.39 333.739 620.548C338.58 623.095 340.886 627.495 342.5 632.589C343.422 635.136 343.191 637.683 342.269 640.23C339.503 647.408 333.739 650.65 326.361 651.576C322.903 652.039 319.906 650.65 317.37 648.103C314.372 645.093 312.528 641.388 311.836 637.22C310.453 629.81 314.372 622.864 321.289 620.317C322.672 619.854 324.056 619.622 325.439 619.622H327.283ZM358.177 610.36C359.561 612.212 360.483 614.528 360.944 616.843C361.636 620.548 360.483 623.327 357.255 625.179C355.872 626.105 354.258 626.569 352.414 626.8C346.419 627.958 341.347 623.79 341.578 617.538C341.578 615.917 341.578 614.065 342.961 612.907C345.036 610.823 347.341 608.739 350.339 607.813C351.261 607.581 351.952 607.35 352.875 607.35C355.18 607.581 357.025 608.508 358.177 610.36ZM392.76 593.92C396.218 593.92 398.063 596.235 398.063 601.33C398.063 604.34 395.988 606.192 392.76 606.192C389.302 606.192 386.305 603.182 386.305 599.94C386.535 597.162 389.763 593.92 392.76 593.92ZM397.832 607.813C400.368 605.729 402.674 603.182 402.213 599.477C401.752 595.541 398.524 592.299 394.605 591.604C392.76 591.373 390.916 590.91 389.071 591.373C384.46 592.762 382.616 595.078 382.385 600.403C382.616 603.414 383.077 607.118 386.996 608.971C388.61 609.665 389.994 610.128 391.607 610.128C393.682 610.36 395.988 609.434 397.832 607.813ZM405.902 594.615C409.129 601.793 406.824 609.202 400.138 613.139C392.76 617.538 382.616 615.223 379.388 608.971C375.699 602.256 375.699 595.541 381.694 590.215C385.152 586.973 389.071 586.279 392.76 586.279C398.985 586.51 403.366 588.826 405.902 594.615ZM399.216 618.696C406.593 616.38 412.357 606.655 410.743 599.246C410.282 596.467 409.36 593.92 407.977 591.373C404.288 584.658 398.293 581.648 391.146 580.722C389.994 580.49 388.61 580.953 387.457 581.416C383.308 582.805 378.927 584.195 375.469 586.742C371.549 589.984 369.244 594.151 369.705 599.014C369.705 604.803 371.549 609.202 374.316 613.602C375.008 614.759 375.93 615.686 377.083 616.38C381.694 618.696 386.305 620.317 391.377 620.317C393.913 620.085 396.449 619.622 399.216 618.696ZM412.357 588.826C415.815 594.383 416.276 600.403 415.585 606.887C414.893 613.37 412.127 618.464 406.824 622.169C401.521 625.874 395.757 626.568 389.532 626.568H385.844C378.005 625.874 371.088 623.095 367.399 615.917C362.788 606.887 361.175 597.393 365.324 587.437C368.783 579.564 374.547 574.701 382.846 574.007C383.999 574.007 385.152 573.775 386.305 573.775C397.371 573.775 406.132 578.869 412.357 588.826ZM320.367 583.037C323.595 583.037 324.747 581.648 324.517 578.406C324.286 575.859 322.211 573.08 319.445 572.386C317.37 571.691 315.295 572.386 313.911 574.238C312.528 575.859 312.528 577.711 313.681 579.332C315.295 581.416 317.139 583.037 319.675 583.037H320.367ZM330.511 574.701C332.125 578.638 330.742 583.5 327.053 586.742C325.439 588.131 323.594 588.826 321.289 588.826C316.908 588.594 313.45 586.047 310.453 582.806C309.3 581.416 308.378 580.027 308.148 578.174C307.456 572.617 312.759 566.365 318.292 566.134H318.522C323.595 566.365 328.667 570.07 330.511 574.701ZM327.744 591.373C333.278 589.057 335.583 584.426 336.505 579.101C336.967 576.785 336.275 574.007 334.661 571.923C331.894 568.218 328.206 565.439 323.594 564.281C321.52 563.818 319.445 563.818 317.37 564.281C313.911 564.976 310.684 566.365 307.686 568.218C305.15 569.839 303.536 572.386 303.767 574.238C303.998 580.953 306.073 585.121 310.453 588.131C312.067 589.289 313.681 590.215 315.525 591.141C317.6 592.299 319.445 592.994 321.52 592.994C323.364 592.994 325.439 592.299 327.744 591.373ZM322.442 558.493C328.897 559.419 333.969 563.124 338.119 567.986C342.269 572.617 345.036 582.111 339.733 589.057C338.35 590.91 336.736 592.531 335.122 593.92C330.511 598.088 325.439 600.635 319.214 600.172C318.522 600.172 318.061 599.94 317.37 599.94C308.148 599.94 298.464 591.141 297.773 579.332C297.542 573.544 299.387 568.681 303.306 564.513C307.456 560.114 312.528 558.03 318.061 558.03C319.675 558.261 321.058 558.261 322.442 558.493ZM333.278 599.94C336.967 598.088 340.425 596.004 343.422 593.225C345.497 591.141 346.65 588.594 347.111 585.816C348.264 576.785 345.497 569.144 338.35 563.355C337.658 562.892 336.967 562.198 336.275 561.734C331.894 557.798 326.822 555.02 322.442 555.483C311.836 555.251 304.689 558.493 299.156 565.439C296.62 568.681 294.314 571.923 293.853 576.091C293.853 576.785 293.623 577.48 293.623 578.174C293.392 587.9 296.85 595.541 305.842 600.172C310.222 602.487 314.834 603.645 319.214 603.645C324.056 603.645 328.667 602.487 333.278 599.94ZM330.742 551.083C338.35 553.63 344.344 558.493 347.802 566.134C348.494 567.523 349.186 568.681 349.877 569.839C352.183 573.544 353.105 577.943 353.336 582.342C353.336 584.658 353.105 586.973 352.183 589.057C349.647 594.151 346.88 599.014 342.73 602.95C336.736 608.739 329.589 611.286 321.75 610.592C314.372 609.897 307.225 607.35 301.231 602.95C294.314 597.856 289.473 591.373 288.781 582.342C288.32 576.554 290.164 570.996 293.162 566.134C295.698 561.966 298.925 558.493 302.845 555.714C308.378 551.546 314.372 549.462 320.597 549.462C323.594 549.231 327.283 549.925 330.742 551.083ZM385.382 555.019C385.844 552.936 385.382 551.083 383.769 549.694C381.924 547.841 379.388 546.915 376.622 546.684C372.241 546.452 370.166 550.157 370.166 553.399C370.397 556.64 373.855 559.882 377.313 560.345H378.005C381.463 560.345 384.691 558.03 385.382 555.019ZM394.835 545.758C395.296 546.684 395.757 547.841 396.218 548.768C398.063 551.546 398.063 554.556 396.91 557.567C395.296 562.198 392.068 565.208 388.149 567.986C381.463 572.849 374.316 573.312 367.399 568.912C362.558 565.902 359.33 561.271 359.33 555.483C359.33 548.073 362.558 542.053 369.474 538.579C372.702 536.959 376.391 535.801 381.002 535.801H381.233C387.227 535.801 392.299 539.274 394.835 545.758ZM297.773 540.663C299.617 539.274 301 537.422 302.845 535.801C307.917 530.707 306.073 523.76 303.075 520.287C300.539 517.277 297.542 515.424 295.006 515.424C289.242 515.424 285.784 517.045 282.556 519.361C279.559 521.676 276.792 524.223 275.409 527.928C274.256 530.938 274.487 533.717 276.101 536.032C278.406 539.506 281.403 542.516 285.553 543.442C286.706 543.674 287.859 543.905 289.012 543.905C292.239 544.137 295.237 542.979 297.773 540.663ZM311.836 529.781C312.759 539.737 299.617 551.778 291.087 551.083C280.02 550.388 269.645 542.979 269.876 530.707C270.106 517.971 278.867 509.173 290.856 508.478H291.548C301.231 508.246 312.067 517.277 311.836 529.781ZM345.958 514.73C348.494 514.498 351.491 514.73 353.336 511.72C354.95 509.173 354.719 506.162 352.644 503.847C351.491 502.458 350.108 501.531 348.494 500.605C345.497 498.521 341.808 499.216 339.503 501.763C337.658 503.847 335.583 506.625 336.967 509.404C338.58 512.414 341.347 514.73 345.266 514.73H345.958ZM349.186 493.659C360.483 495.28 363.249 507.783 358.638 514.498C355.411 519.129 351.261 521.676 346.189 521.445C344.114 521.676 342.5 521.676 340.886 520.982C335.353 518.203 331.894 513.804 331.433 507.783C330.972 501.763 335.122 495.974 340.886 494.353C342.73 493.89 344.575 493.659 346.419 493.659H349.186ZM265.034 488.333C267.34 491.575 268.031 494.816 266.187 498.29C264.112 502.226 261.115 504.542 256.504 504.773C254.89 504.773 253.276 504.31 251.893 503.384C248.896 500.837 246.36 497.827 245.437 493.89C244.515 490.649 245.668 487.175 248.204 485.323C250.279 483.702 252.584 482.776 254.89 482.776C258.579 482.776 262.268 484.628 265.034 488.333ZM356.333 523.297L361.866 517.74C363.48 516.119 364.402 514.035 364.863 511.72C366.247 503.847 364.172 497.363 358.177 492.038C354.258 488.796 349.877 486.712 345.036 485.786C340.194 484.86 336.275 486.944 332.817 490.185C322.672 499.447 321.981 513.572 331.203 524.455C334.43 528.16 338.811 529.549 344.114 529.317C344.575 529.317 345.266 529.549 345.728 529.549C349.877 529.317 353.336 526.539 356.333 523.297ZM360.713 482.776C368.783 487.87 373.855 494.816 375.008 504.542C375.469 508.709 375.699 512.877 373.624 516.814C369.935 523.992 364.633 529.549 357.716 533.485C352.875 536.264 347.572 537.885 341.808 536.959C328.897 534.643 315.986 521.676 316.678 506.162C317.37 492.501 330.742 478.608 343.422 479.071H344.805C350.339 478.608 356.794 480.229 360.713 482.776ZM307.225 479.071C307.456 485.323 299.617 490.88 294.775 490.649C289.012 491.112 284.401 484.165 283.94 477.219C283.709 472.356 289.242 467.725 295.237 467.494C301 467.725 306.995 473.745 307.225 479.071ZM259.04 509.636C264.112 508.246 268.723 505.699 271.951 501.3C274.256 498.058 274.717 494.585 273.334 490.88C271.259 485.091 267.801 480.46 262.729 477.219C256.504 473.051 251.201 473.282 246.36 478.376C244.515 480.46 242.44 482.081 241.057 484.397C239.673 486.481 238.982 488.796 239.212 492.501C239.674 497.363 241.518 502.689 246.821 505.931C248.434 506.857 250.048 508.015 251.662 508.709C253.046 509.404 254.659 509.867 256.043 509.867C256.965 510.099 257.887 509.867 259.04 509.636ZM255.582 466.799C256.273 466.799 256.965 466.799 257.426 467.03C265.495 468.188 272.412 471.198 275.87 479.071C277.254 481.85 278.176 484.86 278.867 487.87C280.942 496.437 278.176 504.078 271.029 509.173C269.184 510.562 267.109 511.951 265.265 513.34C257.426 518.898 248.204 518.203 241.287 511.488C240.365 510.793 239.674 509.867 238.982 508.941C234.832 504.078 230.682 498.984 230.913 492.269C230.682 490.417 230.682 488.796 231.143 487.407C233.218 478.839 238.751 473.282 246.129 469.577C249.357 467.957 252.354 466.799 255.582 466.799ZM206.243 457.537C210.854 457.768 215.466 461.473 215.466 465.641C215.466 469.346 211.546 472.819 207.627 472.819C203.477 472.819 199.327 468.883 199.327 464.946C199.557 461.473 202.785 457.537 206.243 457.537ZM326.361 470.735C332.355 470.504 335.814 467.725 336.505 462.399V461.242C336.044 455.684 329.128 450.822 323.825 453.137C318.753 455.221 316.908 460.315 319.445 465.41C320.136 467.03 321.289 468.188 322.442 469.346C323.594 470.272 324.747 470.504 325.669 470.504C326.131 470.735 326.361 470.735 326.361 470.735ZM329.819 447.812C335.814 449.201 339.733 453.137 342.039 458.463C344.575 463.789 343.191 468.188 338.58 471.893C337.658 472.588 336.736 473.282 335.583 473.977C330.742 476.755 325.669 478.145 320.597 475.366C315.525 472.819 312.528 468.188 312.297 462.399C312.067 453.6 317.831 447.349 325.9 447.349C327.283 447.58 328.436 447.58 329.819 447.812ZM238.751 443.412C244.054 443.412 249.818 448.738 249.818 453.369C249.818 458.232 244.976 463.326 240.135 463.326C234.832 463.326 229.76 458.463 229.529 453.369C229.299 448.275 234.14 443.412 238.751 443.412ZM291.317 440.171C293.162 438.318 294.775 436.234 294.545 433.224C294.314 429.056 289.473 424.425 285.323 424.194C280.712 423.73 277.484 426.278 274.487 429.288C273.334 430.445 274.026 431.835 273.795 432.992C273.795 437.623 276.562 441.328 281.173 443.181C281.865 443.412 282.787 443.644 283.709 443.644C286.476 443.644 289.242 442.486 291.317 440.171ZM298.925 424.657C302.153 429.288 302.384 433.687 300.078 438.55C299.848 439.013 299.617 439.476 299.387 440.171C296.85 447.58 287.398 451.285 280.02 449.201C273.104 447.117 267.801 438.318 268.262 432.298C268.493 427.435 269.184 422.804 273.565 420.257C276.331 418.636 280.02 417.479 283.94 417.479C289.473 417.016 295.237 419.331 298.925 424.657ZM192.871 425.814C195.869 425.583 198.174 423.73 198.174 421.415C197.944 418.636 196.099 416.552 193.333 416.784C190.566 417.016 188.491 419.563 188.721 422.804C188.721 424.888 190.105 426.046 192.41 426.046C192.641 425.814 192.641 425.814 192.871 425.814ZM202.555 419.563C203.938 425.583 200.019 429.982 192.871 430.909C188.03 431.603 184.11 427.898 183.88 422.341C183.649 420.026 184.572 417.942 185.263 415.858C185.955 413.774 187.338 412.616 189.183 411.921C190.566 411.458 191.719 411.227 193.102 411.227C197.482 410.995 201.402 414.237 202.555 419.563ZM269.415 416.552C268.493 417.016 267.57 417.71 266.879 418.405C259.962 426.278 258.579 438.781 264.112 448.043C267.109 453.369 271.951 456.379 278.176 456.379C280.02 456.379 281.865 456.379 283.709 456.148C290.164 455.453 294.545 451.517 298.695 447.117C299.617 446.191 300.078 445.033 301 444.339C307.456 438.781 306.764 425.12 300.309 418.868C296.62 415.395 292.47 413.311 287.398 413.079H284.401C279.098 412.848 274.256 414.468 269.415 416.552ZM298.464 409.606C307.225 415.163 310.914 423.036 311.145 432.992C311.145 436.466 310.914 439.707 309.531 442.718C306.764 448.969 302.845 454.295 296.85 457.768C287.628 463.094 277.945 465.873 268.031 459.158C262.498 455.453 258.118 450.359 255.812 444.107C253.737 438.087 253.968 431.835 255.812 425.583C258.809 415.626 266.187 409.606 275.87 406.827C278.867 405.901 281.865 405.438 284.862 405.438C289.473 405.67 294.084 406.827 298.464 409.606ZM206.243 427.898C207.166 426.046 208.318 424.194 207.857 422.341C207.857 414.468 203.016 407.522 195.638 405.67C192.18 404.743 188.952 405.901 185.724 407.059C179.96 409.606 177.655 414.468 177.886 421.647C178.116 428.13 184.802 434.613 189.874 435.771C190.566 436.003 191.488 436.003 192.41 436.003C197.944 436.003 204.399 432.529 206.243 427.898ZM193.333 399.186C199.096 399.186 204.399 401.039 208.549 405.438C212.007 409.143 212.699 414.005 213.621 418.636C215.235 427.204 210.624 436.003 203.016 439.244C196.791 441.791 190.566 441.56 184.341 439.244C182.266 438.55 180.191 437.624 179.038 436.003C175.119 430.677 171.891 425.12 172.122 418.173C172.583 411.227 175.58 406.133 181.574 402.659C185.263 400.807 188.952 399.186 193.333 399.186ZM204.63 445.959C212.699 443.181 220.307 435.54 219.615 427.435C219.154 417.71 218.232 410.069 214.082 403.354C210.624 397.797 205.782 395.018 199.557 394.787C193.333 394.787 187.108 395.25 181.344 397.797C174.658 400.807 169.816 405.67 167.972 412.848C166.588 418.173 166.819 423.731 169.125 429.056C170.277 431.603 171.661 433.919 173.274 436.466C177.655 443.644 184.572 446.191 192.41 447.117C193.333 447.349 194.485 447.349 195.408 447.349C198.405 447.349 201.632 446.885 204.63 445.959ZM194.716 388.766C204.63 388.766 212.929 393.166 219.846 399.881C222.613 402.659 224.688 406.133 225.61 409.837C227.685 418.636 229.068 427.204 225.379 436.003C223.304 441.097 220.307 445.033 215.696 448.043C209.702 451.98 203.016 454.295 195.638 454.295C189.183 454.527 182.958 453.369 177.194 450.359C173.966 448.506 170.738 446.422 168.663 442.949C166.127 439.013 164.283 435.076 162.669 430.677C158.519 419.099 161.055 408.68 168.663 399.649C175.349 392.008 184.572 388.766 194.716 388.766ZM153.447 400.807C154.6 398.26 153.908 395.481 151.603 393.397C149.297 391.313 146.53 389.924 144.455 389.924C141.228 389.924 138.922 391.777 138.23 394.787C136.617 400.807 140.075 405.438 146.3 405.901H146.761C149.297 406.133 152.294 403.817 153.447 400.807ZM160.364 398.26C160.364 404.049 153.908 413.542 144.225 413.542C136.847 413.542 129.47 405.438 129.47 397.565C129.47 390.156 137.078 382.978 144.917 382.746H145.378C152.064 382.515 160.364 388.303 160.364 398.26ZM254.198 399.649C257.426 398.492 261.576 390.85 260.654 387.609C259.04 382.051 254.659 378.115 249.357 378.347C243.132 378.578 237.829 383.209 237.137 388.998C236.215 395.25 240.596 398.955 244.746 400.112C245.898 400.576 247.282 400.575 248.434 400.575C250.279 400.807 252.123 400.344 254.198 399.649ZM259.962 370.705C264.573 374.642 267.801 379.504 269.645 385.293C271.72 391.777 268.954 401.039 263.42 404.743C258.579 407.985 253.046 409.606 247.973 410.069C238.751 410.301 230.221 404.28 227.685 396.408C226.071 391.545 226.301 386.682 229.299 382.515C232.296 378.115 235.524 373.947 239.904 370.474C242.671 368.158 246.36 367.001 250.048 367.001C253.507 367.001 256.965 368.158 259.962 370.705ZM121.4 364.917C121.4 369.316 116.559 374.179 111.717 374.41C107.336 374.41 103.187 370.011 102.956 364.917C102.956 360.286 106.414 356.812 111.486 356.581H111.717C116.789 356.581 121.4 360.517 121.4 364.917ZM216.618 367.695C217.31 365.148 214.774 361.675 212.007 362.138C209.01 362.601 205.782 363.527 204.399 366.769C204.168 367.464 203.938 368.158 204.399 368.853C206.013 370.937 208.088 372.326 210.163 372.558C213.391 372.558 215.927 370.242 216.618 367.695ZM211.316 354.729C217.31 355.192 221.921 359.591 221.921 365.38C221.921 373.484 215.927 378.81 207.857 377.189C207.396 377.189 206.705 376.957 206.243 376.957C202.785 376.263 197.482 372.558 197.713 368.158C198.405 361.675 202.324 354.96 210.163 354.96C210.854 354.729 211.085 354.729 211.316 354.729ZM162.439 353.571C165.666 353.571 167.511 355.192 167.741 357.97C167.741 360.749 165.205 363.759 162.9 363.759C160.364 363.759 157.597 361.212 157.597 358.433C157.136 355.655 159.441 353.571 162.439 353.571ZM124.628 364.917C124.628 360.286 119.325 352.413 114.253 352.645C106.645 353.108 99.7283 358.433 99.9589 364.454C100.189 370.705 106.184 376.494 112.409 376.494C119.325 376.494 124.628 371.4 124.628 364.917ZM125.55 346.393C133.85 353.339 139.153 368.622 127.856 380.199C121.4 386.682 113.1 388.766 105.262 385.293C96.27 381.357 91.4284 374.41 91.1978 364.917C91.4284 355.423 96.5005 347.782 104.8 344.309C106.875 343.383 109.181 343.383 111.256 343.151C112.409 342.919 113.561 342.919 114.945 342.919C118.864 342.919 122.553 343.614 125.55 346.393ZM175.58 359.591C175.811 356.581 174.888 354.265 172.813 352.181C168.663 348.014 163.822 347.782 158.519 349.171C154.139 350.329 149.989 355.655 149.989 360.517C149.758 365.148 152.986 369.779 157.597 371.4C158.519 371.863 159.672 371.863 160.825 371.863H161.286C168.202 371.863 175.119 364.454 175.58 359.591ZM175.811 345.003C184.341 350.792 184.802 360.286 181.113 366.538C178.116 371.4 174.197 375.105 168.894 377.42C163.822 379.736 158.75 379.967 154.139 376.726C150.911 374.41 147.683 371.863 145.608 368.39C144.225 366.074 143.303 363.527 143.533 360.749C143.533 354.729 146.761 349.403 152.064 346.624C152.525 346.393 153.216 345.93 153.678 345.698C157.366 342.919 161.286 341.53 164.975 341.53C168.433 341.299 172.122 342.456 175.811 345.003ZM206.013 327.637C207.857 329.49 208.549 331.805 208.318 334.352C207.627 341.53 202.324 346.393 194.255 346.393C190.796 346.161 187.569 344.077 184.802 341.067C181.574 337.594 180.652 333.426 182.727 329.026C184.572 324.859 187.799 321.848 192.871 321.848H193.333C198.635 321.617 202.555 323.932 206.013 327.637ZM85.8952 311.892C90.9673 313.513 94.195 321.385 93.2728 325.553C92.1201 331.573 87.5091 335.278 81.5147 335.278C77.3648 335.278 73.2148 333.657 70.4482 330.647C63.7621 323.701 68.3732 314.67 73.9064 312.123C75.7509 311.197 77.8258 310.734 79.6703 310.734C81.5147 310.734 83.8202 311.197 85.8952 311.892ZM153.216 309.576C153.216 313.049 149.758 316.291 145.608 316.291C141.919 316.291 138.23 312.586 138.23 309.113C138.23 305.64 141.919 302.167 145.839 302.167C149.758 301.935 153.216 305.64 153.216 309.576ZM92.5812 332.963C94.195 331.11 95.8089 329.026 96.9617 326.711C100.42 319.996 97.4228 311.197 90.5062 307.724C83.1286 304.019 75.9814 305.408 69.0648 308.65C67.2204 309.576 65.8371 310.966 64.9149 312.586C62.1483 317.68 60.9956 323.006 63.0705 328.795C65.8372 335.973 70.2176 339.446 78.748 339.446C84.5119 339.446 88.8923 337.362 92.5812 332.963ZM82.4369 299.62H84.7424C95.3478 300.314 107.106 311.429 105.723 323.701C105.031 329.258 103.648 334.352 99.0366 337.825C93.2728 342.225 87.2785 345.003 78.748 345.235C72.062 345.003 65.8371 341.993 61.2261 335.741C57.7678 330.879 56.3845 325.553 56.8456 319.764C57.3067 313.513 60.0733 308.187 65.1455 304.714C70.4482 301.472 76.212 299.62 82.4369 299.62ZM149.297 320.228C151.372 319.07 153.216 317.912 155.061 316.291C157.597 313.976 158.75 308.187 157.366 304.714C155.522 300.314 152.755 297.999 147.683 297.999C143.764 298.925 138.692 298.925 135.464 303.324C132.467 307.492 133.158 313.976 137.078 317.217C138.461 318.375 139.844 319.301 141.458 319.996C142.842 320.691 143.994 320.922 145.378 320.922C146.992 321.154 148.144 320.922 149.297 320.228ZM163.591 307.724C163.822 311.429 162.208 314.67 160.364 317.68C156.905 323.006 152.064 326.016 145.608 326.016C139.614 326.248 135.464 323.238 132.006 318.375C126.472 310.502 129.7 299.851 137.539 296.146C140.767 294.525 143.994 293.599 147.453 293.136C148.144 293.136 148.836 292.905 149.528 292.905C157.597 292.905 163.361 300.314 163.591 307.724ZM56.3845 285.727C56.3845 287.347 55.0012 288.737 53.1567 288.737C51.3123 288.737 49.4679 287.347 49.4679 285.495C49.4679 283.874 50.8513 282.485 52.6957 282.253H52.9262C54.7706 282.253 56.1539 283.874 56.3845 285.727ZM153.908 329.953C157.827 327.869 161.286 325.322 164.283 322.08C167.972 318.144 169.355 313.049 170.277 307.724C168.894 299.62 165.666 292.673 157.366 289.2C147.914 285.263 139.153 285.958 132.006 294.294C130.392 296.146 128.547 297.767 126.933 299.62C124.167 302.63 123.706 306.334 123.936 310.039C124.167 316.06 126.933 321.154 130.392 325.785C132.006 328.1 134.542 329.258 137.078 330.416C139.844 331.574 142.38 332.037 145.147 332.037C148.144 332.268 151.141 331.573 153.908 329.953ZM158.519 282.022C170.738 283.874 177.424 294.525 177.424 305.408C177.424 310.734 174.888 315.596 172.813 320.459C170.508 325.785 167.05 329.953 161.977 333.194C155.983 336.899 149.528 338.52 142.38 338.52C138.692 338.752 131.545 335.973 128.778 333.657C122.784 328.563 119.556 322.08 118.172 314.439C117.942 313.049 117.711 311.429 117.711 310.039C119.786 295.915 129.47 286.19 142.611 282.253C144.686 281.559 146.992 281.327 149.066 281.327C152.294 281.096 155.522 281.559 158.519 282.022ZM46.0096 289.663C49.6985 295.915 54.079 294.525 58.4595 291.515C60.9956 289.894 60.9955 285.727 59.1511 283.411C57.3067 281.327 55.0012 279.706 52.2346 279.706C47.1624 279.706 42.7819 284.337 46.0096 289.663ZM66.0677 288.042C66.0677 294.525 60.0733 299.388 52.004 299.388C44.8569 299.388 38.632 293.368 38.632 286.421C38.632 279.938 45.318 273.917 52.9262 273.686H53.1567C59.6122 273.917 65.8371 280.864 66.0677 288.042ZM90.5062 260.951C98.345 260.951 106.414 269.75 106.414 277.854C106.414 286.421 98.8061 293.368 90.0451 293.368C81.0536 293.368 73.9064 285.727 73.6759 276.696C73.2148 267.203 83.8202 261.182 90.5062 260.951ZM48.3151 241.269C48.3151 239.648 46.7013 238.259 44.6263 238.259C42.0903 238.259 40.0153 239.88 40.0153 242.427C40.0153 244.048 41.8597 245.668 43.9347 245.668C46.4707 245.437 48.0846 244.048 48.3151 241.269ZM53.6179 241.732C53.6179 247.289 48.7762 251.92 42.7819 251.92C38.4014 251.92 34.2515 247.752 34.0209 243.584C34.0209 238.722 39.093 233.165 43.7041 233.165C48.0846 233.165 54.079 236.406 53.6179 241.732ZM90.2757 239.88C90.2757 237.333 87.2785 234.322 84.7424 234.322C81.7452 234.322 78.5175 237.796 78.5175 241.037C78.5175 243.584 81.0536 245.205 84.5119 245.205C87.7396 245.205 90.5062 242.89 90.2757 239.88ZM84.973 229.228C85.8952 229.228 86.5868 229.228 87.509 229.691C93.0423 231.312 97.6534 236.638 95.3478 243.121C93.734 247.984 90.0451 250.531 84.0507 250.531C79.6702 250.531 75.5203 247.752 74.3676 244.279C72.062 237.564 77.8259 229.228 84.973 229.228ZM55.6928 251.689C57.7678 249.142 59.6122 246.363 58.9206 243.121C59.1511 237.564 56.6151 233.628 52.2346 230.849C50.3901 229.46 48.3152 228.534 46.2402 227.607C43.7041 226.681 41.168 226.45 39.093 227.839C33.0987 232.238 28.4877 237.564 27.796 245.205C27.5655 248.91 28.7182 251.92 32.1765 253.773C34.9431 255.393 37.2487 257.246 40.4764 257.709C41.3986 257.941 42.3208 257.94 43.0125 257.94C48.3152 257.94 52.4651 255.857 55.6928 251.689ZM58.2289 225.292C66.9899 231.081 68.8343 240.343 65.8371 249.605C63.7621 256.551 59.3817 262.34 53.1567 266.508C51.5429 267.434 49.929 268.129 48.0846 268.36C41.6292 268.823 35.8654 266.971 30.5627 263.266C24.5683 259.098 21.3406 253.541 21.5711 245.668C21.3406 243.816 21.8017 241.5 22.4933 239.416C23.4155 235.943 25.0294 232.47 26.6432 229.228C28.7182 225.06 32.1765 222.282 36.7875 221.124C38.8625 220.661 40.9375 220.429 42.7819 220.429C48.0846 220.198 53.1568 222.05 58.2289 225.292ZM69.7565 193.338C69.7565 196.811 66.5288 200.285 62.84 200.285C59.3817 200.285 56.154 197.043 56.154 193.338C56.154 189.633 58.69 187.086 62.84 187.086C66.5288 187.086 69.526 189.865 69.7565 193.338ZM37.2487 195.885C37.2487 201.442 32.1765 206.536 26.1822 206.536C20.6489 206.536 14.8851 201.211 14.6546 195.654C14.424 189.865 19.7267 184.076 25.2599 184.076H25.4905C31.7154 184.076 37.2487 189.402 37.2487 195.885ZM75.0592 196.117C76.6731 192.18 73.4453 185.928 69.2954 184.308C62.8399 181.76 55.0012 184.539 52.2346 190.559C50.3901 194.496 52.4651 203.295 56.154 205.842C57.5373 206.768 59.3817 206.999 60.9955 206.768C68.1426 206.768 72.5231 202.368 75.0592 196.117ZM69.7565 178.519C77.3647 180.371 81.2841 185.697 82.8979 193.106C84.5118 200.053 82.4369 205.842 76.6731 210.01C73.9065 212.094 70.9093 213.483 67.6816 214.409C61.2261 216.03 55.2317 215.335 50.6207 210.01C46.2402 204.916 45.0874 199.127 46.0096 192.643C47.1624 182.687 54.5401 178.519 63.7621 177.824C65.6066 178.056 67.9121 178.056 69.7565 178.519ZM74.8286 165.784C77.3647 165.784 79.4397 163.7 79.4397 161.384C79.2091 158.374 75.9814 155.132 73.2148 155.132C71.1398 155.132 69.526 156.753 69.526 158.837C69.526 162.542 72.062 165.784 74.8286 165.784ZM84.7424 161.616C84.7424 166.247 80.1313 170.646 75.0592 170.646C69.2954 170.646 64.2233 165.32 64.2233 158.837C63.5316 153.28 68.8343 150.501 73.9064 150.501H74.137C79.2092 150.27 84.5119 156.058 84.7424 161.616ZM29.4099 153.048C29.6404 153.048 30.1015 153.048 30.3321 152.817C33.3293 152.354 34.0209 151.427 34.0209 148.417C34.0209 144.944 32.6376 143.092 29.4099 141.934C26.8738 141.239 24.3377 142.397 23.4155 145.176C22.7239 147.259 23.4155 149.343 24.5683 150.964C25.4905 152.354 26.6433 153.048 28.2571 153.048H29.4099ZM40.7069 147.723C40.7069 154.669 35.6348 159.3 28.0266 159.532C21.8017 159.532 17.4211 154.206 17.1906 146.333C17.1906 140.776 22.2628 136.145 28.4877 135.914H29.1793C36.7876 135.914 40.4764 141.702 40.7069 147.723ZM27.3349 170.415C29.871 170.415 32.407 170.183 34.7126 169.488C38.4014 168.562 41.1681 166.247 43.4736 163.005C47.1624 157.448 47.393 151.89 45.5486 145.639C44.3958 141.471 42.7819 137.534 39.5542 134.524C33.3293 128.504 22.7239 129.199 16.7295 135.682C14.1935 138.461 11.8879 141.702 10.7352 145.176C8.66019 151.659 9.12131 157.911 13.5018 163.468C14.6546 164.857 16.0378 166.247 17.4211 167.404C19.7267 169.488 22.4933 170.415 25.4905 170.415C26.1821 170.646 26.6433 170.415 27.3349 170.415ZM34.0209 124.799C36.7876 125.031 39.093 125.725 41.3986 127.115C51.3123 133.366 55.9234 144.249 54.3095 156.058C53.3873 163.005 49.6985 168.099 44.1652 172.267C38.632 176.203 32.6376 178.056 26.4127 177.593C19.2656 178.519 13.2712 176.666 8.66019 171.572C1.05197 163.236 -0.79248 153.511 2.20468 142.628C4.51022 134.756 10.274 130.125 17.4211 126.883C21.3405 125.262 25.4905 124.568 29.6405 124.568C31.2543 124.799 32.6376 124.799 34.0209 124.799ZM76.4425 112.527C84.7424 112.527 90.5062 118.547 90.5062 127.346C90.5062 134.061 84.5119 140.081 77.5953 140.081C71.6009 140.081 62.3788 134.987 62.6094 124.799C62.6094 118.316 69.2954 112.527 76.4425 112.527ZM103.878 90.2981C105.031 87.7511 105.031 84.9725 103.878 82.1939C103.187 80.573 101.573 79.8784 99.9589 79.6468C98.1145 79.4153 96.27 79.8784 94.8867 81.7308C94.195 82.657 93.7339 83.8147 93.5034 84.7409C91.8895 89.3719 94.6562 93.3083 99.7283 93.3083H99.9589C102.034 93.3083 103.187 91.919 103.878 90.2981ZM110.103 75.7105C111.948 77.5629 113.331 79.6468 114.253 82.1939C116.098 88.2142 113.331 93.0767 110.334 97.9393C109.181 99.7917 107.798 101.181 105.723 102.107C98.8061 105.117 88.6618 102.339 84.5119 95.8553C81.0536 90.5297 80.5924 84.9725 82.8979 78.9522C85.6646 71.7741 89.584 68.9955 97.6534 68.9955H98.8061C103.187 68.9955 106.875 72.2372 110.103 75.7105ZM127.625 66.4485C130.161 66.4485 132.236 64.3645 132.236 62.049C132.236 59.0389 130.392 56.7234 128.086 56.7234C125.781 56.7234 123.014 59.2704 123.014 61.3544C123.014 64.133 125.089 66.4485 127.625 66.4485ZM138.23 62.049C138.23 67.1431 133.619 71.5426 127.856 71.5426C121.861 71.311 117.942 66.2169 117.711 61.3544C117.25 54.6394 123.245 51.3977 129.239 50.703H129.7C133.85 50.9346 138.23 56.7234 138.23 62.049ZM104.8 48.6191C108.028 48.6191 111.256 51.6292 111.025 54.6394C111.025 57.6496 107.106 61.3544 104.339 61.3544C101.342 61.3544 98.1144 57.8811 98.1144 54.871C98.1144 51.6292 101.573 48.6191 104.8 48.6191ZM292.009 47.6929C292.009 42.3672 288.089 37.9678 283.478 37.7362C276.331 37.5047 272.181 41.441 272.412 47.6929C272.412 52.787 277.945 58.8073 282.787 58.8073C288.32 59.0388 291.778 54.6394 292.009 47.6929ZM283.248 31.9475C284.631 32.179 285.784 32.4106 287.167 32.4106C289.012 32.6421 290.626 33.3368 291.778 34.4945C297.081 39.3571 300.309 45.1458 298.695 52.787C297.542 58.1127 294.775 62.2806 289.703 64.3645C276.792 69.6902 263.882 60.8913 264.573 47.2298C263.882 42.8303 266.187 39.1255 269.645 35.8838C272.642 33.1052 276.101 31.2528 280.02 31.2528C281.173 31.7159 282.095 31.7159 283.248 31.9475ZM153.908 26.8534C159.211 26.8534 161.977 31.0213 162.439 36.1154C162.669 39.3571 158.519 42.5988 154.83 42.8303C150.45 42.8303 146.761 39.1255 146.761 34.4945C146.761 30.0951 149.758 26.8534 153.908 26.8534ZM195.177 40.0517C197.713 40.0517 199.788 37.9678 199.788 35.6523C199.788 32.6421 197.944 30.3266 195.638 30.3266C193.333 30.3266 190.566 32.8737 190.566 34.9576C190.566 37.7362 192.41 40.0517 195.177 40.0517ZM205.782 35.6523C205.782 40.7464 201.171 45.1458 195.408 45.1458C189.413 44.9143 185.494 39.8202 185.263 34.9576C184.802 28.2427 191.027 25.001 196.791 24.3063H197.252C201.171 24.5379 205.552 30.3266 205.782 35.6523ZM157.597 48.156C159.441 47.9244 161.055 47.4613 162.439 46.3036C164.975 44.4512 166.819 42.1357 167.741 39.1255C169.355 34.0314 166.819 30.0951 163.822 26.6218C159.672 21.9908 153.908 20.8331 148.144 23.1486C146.3 23.8432 144.917 25.2325 143.994 27.0849C143.072 29.4004 142.611 31.7159 142.611 34.4945C143.072 42.8303 147.453 48.156 155.753 48.156C156.444 48.3875 156.905 48.156 157.597 48.156ZM158.519 17.3598C165.666 19.4438 170.969 23.3801 172.813 31.0213C173.966 35.8838 173.736 40.7464 171.43 45.1458C168.663 50.9346 159.441 54.6394 152.755 53.4817C143.764 51.6292 136.386 42.5988 136.386 32.8737C136.156 28.7058 137.769 25.001 141.228 21.9908C143.303 20.1384 145.608 19.2122 148.144 18.0545C150.219 17.1283 152.294 16.6652 154.369 16.6652C155.522 16.6652 156.905 16.8967 158.519 17.3598ZM243.132 6.94006C247.051 7.63471 250.509 9.71866 253.276 12.7288C258.348 18.5176 258.118 25.4641 256.273 32.4106C253.737 41.6726 244.746 46.7667 234.832 47.6929C232.296 47.6929 229.76 47.2298 226.993 46.7667C221.46 45.8405 214.082 39.8202 212.929 33.1052C212.238 28.4742 212.468 23.8432 213.391 19.4438C214.082 15.5074 215.927 12.2657 219.385 10.1817C222.152 8.32935 225.379 7.1716 228.607 6.47695C230.221 6.01385 231.835 6.01385 233.449 6.01385C236.907 5.7823 239.904 6.47696 243.132 6.94006ZM191.258 0.225098C196.33 0.225098 200.941 4.62456 200.941 9.25556C200.941 13.8866 194.946 19.4438 190.566 19.4438C186.185 19.4438 181.113 14.1181 181.113 9.48711C181.113 4.8561 186.185 0.225098 191.258 0.225098Z" fill="#275497"/>
</svg>
