<svg width="204" height="61" viewBox="0 0 204 61" fill="none" xmlns="http://www.w3.org/2000/svg">
<g clip-path="url(#clip0_1136_167)">
<path fill-rule="evenodd" clip-rule="evenodd" d="M201.839 53.2152C201.839 56.4025 199.259 58.9865 196.077 58.9865C196.075 58.9865 196.071 58.9865 196.071 58.9865H7.29929C4.11329 58.9899 1.52764 56.4063 1.52313 53.2152V7.18955C1.52764 3.99729 4.11178 1.4114 7.29929 1.41064H196.07C199.255 1.41064 201.839 3.99729 201.839 7.18804V7.18955V53.2152Z" fill="white"/>
<path fill-rule="evenodd" clip-rule="evenodd" d="M196.071 60.329H7.29917C3.37484 60.3283 0.191845 57.1454 0.184326 53.215V7.1909C0.189965 3.25858 3.37296 0.0727255 7.29917 0.0693359H196.069C199.995 0.074232 203.177 3.25896 203.184 7.1909V53.215C203.187 57.139 199.99 60.329 196.071 60.329Z" fill="#A6A6A6"/>
<path fill-rule="evenodd" clip-rule="evenodd" d="M201.839 53.2152C201.839 56.4025 199.259 58.9865 196.077 58.9865C196.075 58.9865 196.071 58.9865 196.071 58.9865H7.29929C4.11329 58.9899 1.52764 56.4063 1.52313 53.2152V7.18955C1.52764 3.99729 4.11178 1.4114 7.29929 1.41064H196.07C199.255 1.41064 201.839 3.99729 201.839 7.18804V7.18955V53.2152Z" fill="black"/>
<path fill-rule="evenodd" clip-rule="evenodd" d="M40.6982 15.5994C42.0132 13.9525 42.9128 11.7116 42.6632 9.4375C40.7599 9.52224 38.3799 10.7561 37.0092 12.3673C35.7965 13.7867 34.713 16.1131 34.9931 18.3013C37.131 18.461 39.3261 17.2208 40.6982 15.5994ZM45.5127 29.8817C45.4691 25.0252 49.4833 22.6622 49.6668 22.5523C47.3935 19.2327 43.8699 18.7789 42.6316 18.7427C39.6723 18.4309 36.8013 20.5166 35.2939 20.5166C33.7563 20.5166 31.4349 18.7729 28.9328 18.8241C25.7129 18.8738 22.701 20.7411 21.0491 23.6403C17.6398 29.5518 20.1826 38.2394 23.4487 43.0176C25.0829 45.3594 26.9918 47.9709 29.491 47.879C31.9357 47.7792 32.8492 46.3191 35.7995 46.3191C38.7227 46.3191 39.5802 47.879 42.129 47.8203C44.753 47.7792 46.4048 45.4694 47.9815 43.108C49.8698 40.4272 50.628 37.784 50.6581 37.6485C50.5979 37.6274 45.5639 35.7017 45.5127 29.8817Z" fill="white"/>
<path fill-rule="evenodd" clip-rule="evenodd" d="M180.519 38.8017C180.542 37.8476 180.332 37.0265 179.898 36.3316C179.344 35.4367 178.492 34.9903 177.35 34.9903C176.304 34.9903 175.452 35.4261 174.803 36.2999C174.27 36.9949 173.954 37.8295 173.856 38.7987L180.519 38.8017ZM183.57 39.6352C183.578 40.1234 183.539 40.6115 183.453 41.0925H173.855C173.891 42.5211 174.356 43.6153 175.247 44.3686C176.056 45.0409 177.102 45.3784 178.387 45.3784C179.808 45.3784 181.104 45.1524 182.27 44.6955L182.771 46.9246C181.409 47.5212 179.8 47.8184 177.944 47.8184C175.711 47.8184 173.958 47.1581 172.683 45.8409C171.41 44.5223 170.772 42.7501 170.772 40.5301C170.772 38.3512 171.365 36.535 172.552 35.0868C173.795 33.5406 175.474 32.7677 177.587 32.7677C179.662 32.7677 181.233 33.5406 182.3 35.0868C183.145 36.312 183.57 37.831 183.57 39.6352ZM169.261 35.9143C168.928 35.854 168.591 35.8242 168.253 35.8254C167.127 35.8254 166.257 36.2502 165.645 37.1064C165.114 37.8597 164.846 38.8122 164.846 39.9621V47.5498H161.647V37.6427C161.65 36.1248 161.619 34.6069 161.554 33.0901H164.341L164.458 35.857H164.546C164.886 34.906 165.417 34.1391 166.146 33.5647C166.814 33.063 167.625 32.7914 168.459 32.7903C168.754 32.7903 169.021 32.8114 169.258 32.8491L169.261 35.9143ZM155.541 40.274C155.541 38.9493 155.256 37.813 154.684 36.8623C154.013 35.7139 153.053 35.1395 151.809 35.1395C150.527 35.1395 149.544 35.7139 148.875 36.8623C148.302 37.813 148.017 38.9689 148.017 40.3343C148.017 41.6605 148.302 42.7998 148.875 43.7479C149.567 44.8959 150.532 45.4703 151.782 45.4703C153.005 45.4703 153.964 44.8839 154.657 43.7193C155.245 42.7456 155.541 41.6017 155.541 40.274ZM158.857 40.2002C158.857 42.4232 158.224 44.2481 156.96 45.6752C155.638 47.1445 153.88 47.8771 151.687 47.8771C149.571 47.8771 147.889 47.1732 146.635 45.7671C145.38 44.3581 144.753 42.5829 144.753 40.4412C144.753 38.2005 145.401 36.3647 146.693 34.9376C147.988 33.509 149.732 32.7948 151.924 32.7948C154.037 32.7948 155.734 33.4999 157.019 34.9075C158.247 36.2728 158.857 38.0359 158.857 40.2002ZM142.978 35.4999H139.451V42.5211C139.451 44.3068 140.072 45.1976 141.318 45.1976C141.889 45.1976 142.364 45.1494 142.739 45.0485L142.828 47.488C142.197 47.725 141.368 47.844 140.339 47.844C139.076 47.844 138.089 47.4564 137.376 46.682C136.666 45.9072 136.309 44.6097 136.309 42.7833V35.4939H134.208V33.0826H136.309V30.4347L139.451 29.4822V33.0826H142.978V35.4999ZM132.373 41.9241C132.373 43.6319 131.778 45.0198 130.597 46.091C129.298 47.2606 127.484 47.847 125.157 47.847C123.008 47.847 121.286 47.4308 119.986 46.5976L120.726 43.9196C122.129 44.7543 123.67 45.1705 125.348 45.1705C126.554 45.1705 127.493 44.8959 128.162 44.352C128.833 43.8066 129.172 43.0771 129.172 42.1667C129.172 41.3516 128.891 40.6687 128.34 40.1128C127.787 39.5584 126.871 39.0412 125.585 38.5666C122.089 37.257 120.339 35.3414 120.339 32.8219C120.339 31.176 120.957 29.8287 122.191 28.7756C123.424 27.7236 125.06 27.1978 127.095 27.1978C128.912 27.1978 130.426 27.5156 131.628 28.1499L130.825 30.7692C129.694 30.1545 128.417 29.8468 126.988 29.8468C125.86 29.8468 124.974 30.1259 124.341 30.6803C123.808 31.176 123.538 31.7805 123.538 32.4976C123.538 33.289 123.846 33.9459 124.458 34.4615C124.989 34.9361 125.959 35.4532 127.36 36.0077C129.08 36.7037 130.344 37.5147 131.153 38.4461C131.967 39.3772 132.373 40.5392 132.373 41.9241ZM110.594 40.2589C110.594 38.8514 110.277 37.6909 109.644 36.776C108.952 35.8254 108.026 35.3489 106.862 35.3489C106.072 35.3489 105.355 35.6144 104.711 36.1372C104.069 36.6645 103.65 37.3534 103.454 38.2066C103.356 38.6043 103.304 38.9282 103.304 39.1844V41.5972C103.304 42.6477 103.626 43.5351 104.265 44.2616C104.908 44.9833 105.742 45.3483 106.772 45.3483C107.978 45.3483 108.916 44.8793 109.585 43.9498C110.258 43.0168 110.594 41.787 110.594 40.2589ZM113.855 40.1414C113.855 42.601 113.19 44.5449 111.859 45.972C110.666 47.2425 109.186 47.8771 107.418 47.8771C105.511 47.8771 104.139 47.1943 103.307 45.8259V53.4139H100.107V37.8416C100.107 36.2969 100.067 34.7131 99.9887 33.0886H102.802L102.981 35.3805H103.041C104.106 33.6536 105.726 32.7903 107.9 32.7903C109.597 32.7903 111.015 33.4638 112.153 34.8125C113.284 36.1644 113.855 37.9395 113.855 40.1414ZM94.0325 40.2589C94.0325 38.8514 93.7175 37.6909 93.0842 36.776C92.3924 35.8254 91.4637 35.3489 90.299 35.3489C89.5098 35.3489 88.7925 35.6144 88.1517 36.1372C87.5094 36.6645 87.0894 37.3534 86.8926 38.2066C86.8048 38.5252 86.7549 38.8537 86.7441 39.1844V41.5972C86.7441 42.6477 87.065 43.5351 87.7073 44.2616C88.3496 44.9848 89.1843 45.3483 90.2106 45.3483C91.4157 45.3483 92.3534 44.8793 93.0242 43.9498C93.6965 43.0168 94.0325 41.787 94.0325 40.2589ZM97.292 40.1414C97.292 42.601 96.6272 44.5449 95.2961 45.972C94.1049 47.2425 92.6234 47.8771 90.8574 47.8771C88.9499 47.8771 87.5784 47.1943 86.7456 45.8259V53.4139H83.5461V37.8416C83.5461 36.2969 83.5056 34.7131 83.4276 33.0886H86.2413L86.4201 35.3805H86.4801C87.5469 33.6536 89.1659 32.7903 91.3392 32.7903C93.0377 32.7903 94.4558 33.4638 95.5904 34.8125C96.7232 36.1644 97.292 37.9395 97.292 40.1414ZM74.9505 39.1874L73.2625 33.9504C73.0836 33.4155 72.7477 32.1556 72.2553 30.1726H72.1953C71.9974 31.0253 71.6805 32.2852 71.2471 33.9504L69.5871 39.1874H74.9505ZM80.7879 47.5498H77.3803L75.5133 41.659H69.0243L67.2463 47.5498H63.9283L70.3584 27.4946H74.3292L80.7879 47.5498Z" fill="white"/>
<path fill-rule="evenodd" clip-rule="evenodd" d="M180.647 16.0168C180.647 14.9196 180.096 14.1452 179.091 14.1452C178.187 14.1452 177.473 14.9346 177.371 16.0168H180.647ZM182.089 17.1426H177.369C177.399 18.4884 178.286 19.2477 179.599 19.2477C180.297 19.2477 180.939 19.1302 181.506 18.9117L181.751 20.0089C181.082 20.3012 180.294 20.4473 179.377 20.4473C177.164 20.4473 175.854 19.0428 175.854 16.8654C175.854 14.686 177.195 13.048 179.2 13.048C181.008 13.048 182.143 14.3938 182.143 16.4266C182.153 16.6665 182.135 16.9068 182.089 17.1426ZM173.559 20.3163H171.988V16.2654C171.988 14.9934 171.509 14.3501 170.561 14.3501C169.746 14.3501 168.987 14.906 168.987 16.0318V20.3163H167.416V9.94813H168.987V14.2175H169.018C169.513 13.4427 170.231 13.0615 171.146 13.0615C172.644 13.0615 173.559 14.2311 173.559 16.0891V20.3163ZM165.234 14.3938H163.503V17.8447C163.503 18.7234 163.807 19.1618 164.419 19.1618C164.696 19.1618 164.929 19.1317 165.117 19.088L165.16 20.2876C164.855 20.4051 164.447 20.4639 163.94 20.4639C162.7 20.4639 161.959 19.7769 161.959 17.9772V14.3938H160.927V13.2092H161.959V11.9071L163.503 11.4385V13.2077H165.234V14.3938ZM154.653 20.3163H153.078V16.2352C153.078 14.9783 152.598 14.3486 151.651 14.3486C150.719 14.3486 150.08 15.1531 150.08 16.0891V20.3163H148.506V15.2405C148.506 14.6122 148.491 13.9384 148.448 13.2077H149.831L149.905 14.3049H149.948C150.37 13.5452 151.23 13.0615 152.19 13.0615C153.676 13.0615 154.653 14.2024 154.653 16.0589V20.3163ZM142.728 14.2175C141.594 14.2175 140.866 15.2842 140.866 16.7765C140.866 18.2398 141.609 19.3064 142.713 19.3064C143.821 19.3064 144.562 18.1659 144.562 16.7463C144.565 15.2992 143.837 14.2175 142.728 14.2175ZM142.67 20.4775C140.603 20.4775 139.263 18.9268 139.263 16.8217C139.263 14.6273 140.632 13.0631 142.787 13.0631C144.826 13.0631 146.195 14.5399 146.195 16.7057C146.196 18.9268 144.784 20.4775 142.67 20.4775ZM131.115 16.1343C131.115 15.1395 130.459 14.2913 129.458 14.2913C128.292 14.2913 127.58 15.3294 127.58 16.7915C127.58 18.2247 128.319 19.2055 129.427 19.2055C130.416 19.2055 131.115 18.3422 131.115 17.3189V16.1343ZM131.348 20.3163L131.274 19.1754H131.231C130.779 20.0375 130.019 20.4775 128.959 20.4775C127.252 20.4775 125.989 18.9705 125.989 16.8503C125.989 14.6273 127.299 13.0615 129.088 13.0615C130.034 13.0615 130.705 13.3825 131.084 14.0277H131.115V9.94813H132.689V18.401C132.689 19.088 132.706 19.7317 132.748 20.3163H131.348ZM122.179 16.7765C120.432 16.7765 119.556 17.2013 119.556 18.2096C119.556 18.9554 120.007 19.32 120.635 19.32C121.434 19.32 122.179 18.7068 122.179 17.8733V16.7765ZM122.395 20.3163L122.281 19.4982H122.239C121.758 20.1566 121.058 20.4775 120.169 20.4775C118.901 20.4775 118.001 19.5855 118.001 18.3859C118.001 16.6315 119.515 15.7245 122.137 15.7245V15.5934C122.137 14.6574 121.643 14.1889 120.668 14.1889C119.97 14.1889 119.358 14.3651 118.819 14.7162L118.499 13.6777C119.153 13.2679 119.97 13.0631 120.929 13.0631C122.778 13.0631 123.711 14.0427 123.711 16.0032V18.6209C123.711 19.3381 123.742 19.8944 123.813 20.3178L122.395 20.3163ZM112.729 14.2175C111.593 14.2175 110.866 15.2842 110.866 16.7765C110.866 18.2398 111.61 19.3064 112.713 19.3064C113.82 19.3064 114.561 18.1659 114.561 16.7463C114.563 15.2992 113.837 14.2175 112.729 14.2175ZM112.671 20.4775C110.604 20.4775 109.263 18.9268 109.263 16.8217C109.263 14.6273 110.631 13.0631 112.786 13.0631C114.825 13.0631 116.194 14.5399 116.194 16.7057C116.196 18.9268 114.782 20.4775 112.671 20.4775ZM105.363 20.3163H106.937V9.94775H105.363V20.3163ZM102.6 20.3163H101.027V16.2352C101.027 14.9783 100.547 14.3486 99.5999 14.3486C98.6682 14.3486 98.0274 15.1531 98.0274 16.0891V20.3163H96.4548V15.2405C96.4548 14.6122 96.4398 13.9384 96.3963 13.2077H97.7799L97.8534 14.3049H97.8969C98.3202 13.5452 99.1785 13.0631 100.14 13.0631C101.626 13.0631 102.601 14.2039 102.601 16.0605L102.6 20.3163ZM94.4514 13.2092L92.238 20.3163H90.7959L89.8788 17.23C89.6508 16.4751 89.4611 15.709 89.3104 14.9346H89.28C89.1645 15.7094 88.9455 16.4853 88.713 17.23L87.7374 20.3163H86.2803L84.1974 13.2092H85.8135L86.6152 16.5878C86.8041 17.3927 86.9631 18.1524 87.0951 18.8695H87.1251C87.241 18.2714 87.4299 17.5238 87.7074 16.6028L88.713 13.2107H89.9943L90.9564 16.5305C91.1889 17.3354 91.3779 18.1253 91.5252 18.871H91.5672C91.6692 18.1403 91.8297 17.3641 92.0472 16.5305L92.9073 13.2107L94.4514 13.2092ZM79.1944 14.2175C78.0583 14.2175 77.3305 15.2842 77.3305 16.7765C77.3305 18.2398 78.0733 19.3064 79.1794 19.3064C80.2855 19.3064 81.0283 18.1659 81.0283 16.7463C81.0283 15.2992 80.3005 14.2175 79.1944 14.2175ZM79.1344 20.4775C77.0665 20.4775 75.7264 18.9268 75.7264 16.8217C75.7264 14.6273 77.095 13.0631 79.2514 13.0631C81.2893 13.0631 82.6594 14.5399 82.6594 16.7057C82.6594 18.9268 81.2473 20.4775 79.1344 20.4775ZM68.6389 11.6284C68.1436 11.6284 67.7218 11.6585 67.3723 11.7308V19.1016C67.5613 19.1317 67.9247 19.1452 68.4346 19.1452C70.8388 19.1452 72.2074 17.7708 72.2074 15.1968C72.2074 12.9018 70.9693 11.6284 68.6389 11.6284ZM68.1016 20.4036C67.2119 20.4036 66.4421 20.3599 65.8013 20.2861V10.5899C66.6974 10.451 67.6029 10.3824 68.51 10.385C72.1789 10.385 73.8685 12.1979 73.8685 15.1531C73.8685 18.5622 71.8726 20.4036 68.1016 20.4036Z" fill="white"/>
</g>
<defs>
<clipPath id="clip0_1136_167">
<rect width="203" height="60.2597" fill="white" transform="translate(0.184326 0.0693359)"/>
</clipPath>
</defs>
</svg>
