<svg width="101" height="100" viewBox="0 0 101 100" fill="none" xmlns="http://www.w3.org/2000/svg">
<g filter="url(#filter0_d_1136_211)">
<circle cx="50.1836" cy="42" r="30" fill="#81378F"/>
<path d="M50.0005 61.1358C49.4038 60.1867 48.8054 59.2381 48.2055 58.2901C47.8971 57.7998 47.5846 57.3135 47.2949 56.8125C47.2538 56.7234 47.1862 56.6494 47.1013 56.6006C47.0165 56.5518 46.9186 56.5308 46.8213 56.5404C44.6397 56.5518 42.4589 56.5477 40.2773 56.5469C38.9566 56.5469 38.0265 55.6749 37.9614 54.3583C37.9516 54.163 37.8938 54.118 37.7173 54.127C37.4536 54.1417 37.1892 54.1376 36.9255 54.127C35.8904 54.0943 35.2037 53.3997 35.198 52.3593C35.1898 50.7697 35.198 49.1802 35.198 47.5906C35.198 45.8074 35.2224 44.0233 35.1898 42.2409C35.1687 41.1163 36.067 40.3334 37.0435 40.402C37.3161 40.4217 37.6335 40.4903 37.8572 40.3808C38.1013 40.2615 37.9638 39.8986 38.0314 39.6453C38.3048 38.6319 39.1706 37.9887 40.3017 37.9879C43.0011 37.9879 45.6997 37.9879 48.3975 37.9879C48.793 37.9879 49.1893 37.9797 49.5847 37.9879C49.7572 37.9928 49.8337 37.9642 49.8288 37.7607C49.8169 36.8345 49.8169 35.9082 49.8288 34.982C49.8288 34.7932 49.7548 34.7483 49.5953 34.7082C49.1695 34.6007 48.7799 34.3813 48.4665 34.0725C48.1531 33.7637 47.9272 33.3766 47.812 32.9511C47.6968 32.5256 47.6965 32.077 47.8111 31.6513C47.9257 31.2257 48.151 30.8383 48.464 30.5291C48.777 30.2198 49.1663 29.9998 49.592 29.8917C50.0176 29.7836 50.4643 29.7913 50.886 29.9139C51.3077 30.0365 51.6893 30.2697 51.9916 30.5895C52.294 30.9092 52.506 31.3041 52.6061 31.7334C52.9153 33.0231 52.1049 34.3805 50.8159 34.7001C50.6003 34.7532 50.549 34.8316 50.5523 35.0409C50.5645 35.9276 50.5685 36.8143 50.5523 37.7002C50.5474 37.956 50.6336 37.9928 50.8598 37.992C53.933 37.9854 57.0068 37.9854 60.0811 37.992C61.2203 37.992 62.0527 38.5984 62.3335 39.6207C62.3895 39.7845 62.417 39.9568 62.4148 40.1299C62.3912 40.3996 62.5206 40.4168 62.7298 40.411C63.0638 40.3877 63.3992 40.3934 63.7323 40.4282C64.6103 40.5581 65.1791 41.2512 65.184 42.1788C65.1921 43.6866 65.184 45.1952 65.184 46.7031C65.184 48.5476 65.1555 50.3922 65.1945 52.2359C65.2181 53.3286 64.45 54.1891 63.3042 54.1319C63.0414 54.1189 62.7346 54.0502 62.5247 54.1556C62.2977 54.2733 62.4213 54.6255 62.3619 54.8699C62.2399 55.3465 61.9645 55.7691 61.5784 56.0722C61.1924 56.3752 60.7175 56.5415 60.2275 56.5453C58.0033 56.5491 55.7816 56.5475 53.5623 56.5404C53.3271 56.5404 53.2083 56.6156 53.0878 56.8117C52.2839 58.1283 51.4653 59.4359 50.6467 60.7452C50.5653 60.8792 50.4668 61.005 50.3773 61.135L50.0005 61.1358Z" fill="white"/>
<path d="M50.1833 60.0746C49.3695 58.7621 48.5745 57.5011 47.8023 56.2262C47.6184 55.9222 47.4093 55.8028 47.0471 55.8061C44.8045 55.8233 42.5618 55.8151 40.32 55.8151C39.3142 55.8151 38.7007 55.2201 38.6991 54.21C38.6942 49.5827 38.6991 44.9562 38.6934 40.3289C38.6934 39.2918 39.4778 38.7304 40.2923 38.7336C46.8266 38.7549 53.3612 38.7535 59.896 38.7295C61.0718 38.723 61.6862 39.4234 61.6805 40.5169C61.6553 45.0322 61.6699 49.5467 61.6691 54.0613C61.6704 54.1937 61.6638 54.326 61.6496 54.4576C61.5519 55.2904 60.9726 55.8127 60.1344 55.8135C57.8413 55.8135 55.5482 55.8216 53.2551 55.8077C52.9378 55.8077 52.7571 55.9164 52.5968 56.1796C51.8099 57.4684 51.0084 58.7466 50.1833 60.0746Z" fill="white"/>
<path d="M66.1631 47.255V41.5726C66.1631 41.146 66.1631 41.1395 66.605 41.1485C66.8971 41.1542 67.1917 41.1076 67.4814 41.1951C67.9111 41.3242 68.1845 41.6609 68.1845 42.1128C68.1845 45.5567 68.1845 49.0009 68.1845 52.4454C68.1861 52.5678 68.1634 52.6893 68.1178 52.8029C68.0721 52.9164 68.0044 53.0197 67.9186 53.1066C67.8327 53.1936 67.7305 53.2625 67.6179 53.3094C67.5052 53.3562 67.3844 53.3801 67.2625 53.3795C66.9891 53.3869 66.7132 53.3656 66.4414 53.3869C66.2063 53.4065 66.1566 53.3215 66.1582 53.0975C66.1672 51.2228 66.1631 49.348 66.1631 47.4724V47.255Z" fill="white"/>
<path d="M34.2073 47.285C34.2073 49.2113 34.2025 51.1367 34.213 53.063C34.213 53.3131 34.1577 53.4071 33.8981 53.3834C33.6385 53.3597 33.3708 53.3834 33.1072 53.3752C32.9856 53.3749 32.8653 53.3504 32.7532 53.3033C32.641 53.2562 32.5392 53.1873 32.4537 53.1006C32.3681 53.0139 32.3004 52.9111 32.2545 52.798C32.2085 52.685 32.1853 52.564 32.186 52.4419C32.1828 48.998 32.1828 45.554 32.186 42.1101C32.186 41.5683 32.5929 41.1678 33.1625 41.1457C33.4253 41.1359 33.6906 41.1588 33.9526 41.1392C34.1781 41.122 34.2171 41.216 34.2163 41.4187C34.2049 43.3703 34.2073 45.3317 34.2073 47.285Z" fill="white"/>
<path d="M51.912 32.3149C51.9078 32.6576 51.8027 32.9913 51.6099 33.2741C51.417 33.5568 51.1452 33.7759 50.8285 33.9036C50.5119 34.0314 50.1647 34.0621 49.8307 33.9919C49.4967 33.9217 49.1909 33.7538 48.9519 33.5092C48.7128 33.2647 48.5512 32.9545 48.4875 32.6179C48.4237 32.2812 48.4606 31.9331 48.5936 31.6175C48.7266 31.3019 48.9496 31.0329 49.2346 30.8445C49.5196 30.656 49.8538 30.5566 50.195 30.5586C50.4231 30.5589 50.6488 30.6048 50.8591 30.6935C51.0694 30.7823 51.2599 30.9122 51.4197 31.0756C51.5795 31.2391 51.7053 31.4328 51.7898 31.6456C51.8743 31.8584 51.9159 32.0859 51.912 32.3149Z" fill="white"/>
<path d="M58.0381 45.0045C58.0427 45.3335 57.9821 45.6601 57.8597 45.9653C57.7372 46.2704 57.5555 46.5481 57.3251 46.7819C57.0947 47.0158 56.8202 47.2012 56.5176 47.3274C56.2151 47.4535 55.8905 47.5179 55.5629 47.5167C55.2354 47.5155 54.9113 47.4488 54.6097 47.3204C54.308 47.1921 54.0349 47.0047 53.8062 46.7691C53.5774 46.5336 53.3977 46.2546 53.2775 45.9486C53.1573 45.6425 53.099 45.3155 53.106 44.9865C53.1199 44.3374 53.387 43.7196 53.8499 43.2662C54.3127 42.8129 54.9343 42.5602 55.5809 42.5625C56.2274 42.5649 56.8471 42.8221 57.3067 43.2788C57.7663 43.7355 58.0289 44.3552 58.0381 45.0045Z" fill="white"/>
<path d="M44.8041 42.5437C45.1283 42.5416 45.4497 42.6044 45.7495 42.7284C46.0493 42.8525 46.3215 43.0352 46.5502 43.266C46.7789 43.4969 46.9595 43.7711 47.0815 44.0728C47.2035 44.3745 47.2644 44.6976 47.2607 45.0232C47.2653 45.3522 47.2046 45.6788 47.0821 45.9839C46.9597 46.2891 46.7779 46.5666 46.5474 46.8005C46.317 47.0343 46.0425 47.2196 45.7399 47.3457C45.4373 47.4718 45.1128 47.5361 44.7852 47.5349C44.4576 47.5336 44.1336 47.4669 43.832 47.3385C43.5304 47.2101 43.2572 47.0226 43.0286 46.787C42.7999 46.5515 42.6202 46.2725 42.5 45.9665C42.3799 45.6604 42.3216 45.3334 42.3287 45.0044C42.3275 44.6788 42.3909 44.3562 42.5151 44.0554C42.6394 43.7547 42.8221 43.4818 43.0526 43.2527C43.283 43.0236 43.5566 42.8429 43.8573 42.7212C44.158 42.5995 44.4799 42.5391 44.8041 42.5437Z" fill="white"/>
<path d="M50.0974 52.0732C48.9207 52.0732 47.7443 52.0732 46.5682 52.0732C46.4465 52.0836 46.3242 52.064 46.2118 52.0159C46.1428 51.9819 46.0873 51.9254 46.0543 51.8557C46.0214 51.7859 46.0129 51.707 46.0303 51.6318C46.0338 51.5596 46.0631 51.491 46.1129 51.4387C46.1627 51.3865 46.2296 51.354 46.3013 51.3474C46.3917 51.3357 46.4828 51.3305 46.5739 51.3319H53.6322C53.7233 51.3301 53.8145 51.3353 53.9048 51.3474C53.9815 51.3556 54.0529 51.3909 54.1061 51.4471C54.1593 51.5032 54.1909 51.5765 54.1953 51.6539C54.207 51.7302 54.1924 51.8083 54.1541 51.8752C54.1159 51.9422 54.0561 51.9941 53.9845 52.0225C53.8707 52.0671 53.7481 52.0842 53.6265 52.0723L50.0974 52.0732Z" fill="#81378F"/>
<path d="M55.5948 43.2754C55.8226 43.277 56.0478 43.324 56.2574 43.4136C56.467 43.5033 56.6568 43.6339 56.8158 43.7978C56.9747 43.9617 57.0997 44.1557 57.1835 44.3685C57.2672 44.5813 57.3081 44.8087 57.3036 45.0374C57.3005 45.2663 57.2525 45.4924 57.1623 45.7027C57.0722 45.913 56.9417 46.1034 56.7783 46.263C56.6149 46.4226 56.4218 46.5484 56.21 46.6331C55.9982 46.7178 55.7718 46.7597 55.5439 46.7565C55.316 46.7534 55.0909 46.7052 54.8815 46.6146C54.6721 46.5241 54.4825 46.393 54.3236 46.2289C54.1647 46.0648 54.0395 45.8709 53.9551 45.6581C53.8708 45.4454 53.829 45.2181 53.8322 44.9892C53.8428 44.024 54.6158 43.2729 55.5948 43.2754Z" fill="#81378F"/>
<path d="M44.7964 43.2755C45.0244 43.274 45.2505 43.318 45.4614 43.405C45.6724 43.492 45.864 43.6203 46.0251 43.7824C46.1862 43.9444 46.3137 44.137 46.4 44.349C46.4864 44.561 46.5299 44.7881 46.528 45.0171C46.5269 45.4794 46.343 45.9224 46.0168 46.2485C45.6905 46.5747 45.2486 46.7573 44.7883 46.7562C44.3279 46.7551 43.8869 46.5704 43.5621 46.2428C43.2374 45.9151 43.0556 45.4712 43.0567 45.0089C43.0559 44.7799 43.1005 44.553 43.1878 44.3414C43.2751 44.1299 43.4035 43.9379 43.5654 43.7766C43.7272 43.6153 43.9194 43.4879 44.1308 43.4019C44.3421 43.3159 44.5684 43.2729 44.7964 43.2755Z" fill="#81378F"/>
</g>
<defs>
<filter id="filter0_d_1136_211" x="0.183594" y="0" width="100" height="100" filterUnits="userSpaceOnUse" color-interpolation-filters="sRGB">
<feFlood flood-opacity="0" result="BackgroundImageFix"/>
<feColorMatrix in="SourceAlpha" type="matrix" values="0 0 0 0 0 0 0 0 0 0 0 0 0 0 0 0 0 0 127 0" result="hardAlpha"/>
<feOffset dy="8"/>
<feGaussianBlur stdDeviation="10"/>
<feComposite in2="hardAlpha" operator="out"/>
<feColorMatrix type="matrix" values="0 0 0 0 0.0470588 0 0 0 0 0.180392 0 0 0 0 0.368627 0 0 0 0.15 0"/>
<feBlend mode="normal" in2="BackgroundImageFix" result="effect1_dropShadow_1136_211"/>
<feBlend mode="normal" in="SourceGraphic" in2="effect1_dropShadow_1136_211" result="shape"/>
</filter>
</defs>
</svg>
