<svg width="204" height="26" viewBox="0 0 204 26" fill="none" xmlns="http://www.w3.org/2000/svg">
<path d="M14.2825 11.6345L23.2165 1.42822H21.099L13.3437 10.2898L7.14653 1.42822H0L9.3699 14.83L0 25.5321H2.11749L10.3087 16.1729L16.8535 25.5321H24L14.2825 11.6345ZM11.3833 14.9471L10.4339 13.6127L2.87979 2.99497H6.1319L12.2267 11.5639L13.1761 12.8982L21.1008 24.0377H17.8487L11.3833 14.9471Z" fill="white"/>
<path d="M51.5688 25.5321V14.5372H47.8848V10.2523H51.5688V7.09225C51.5688 3.42507 53.799 1.42822 57.0563 1.42822C58.6165 1.42822 59.9575 1.54489 60.3483 1.59704V5.42945L58.0892 5.43048C56.3177 5.43048 55.9747 6.27591 55.9747 7.51652V10.2523H60.1995L59.6494 14.5372H55.9747V25.5321H51.5688Z" fill="white"/>
<path d="M96.2324 3.59976C99.4364 3.59976 99.8159 3.61182 101.082 3.66978C101.843 3.67913 102.596 3.81947 103.31 4.08469C103.828 4.28517 104.298 4.59228 104.69 4.98625C105.082 5.38021 105.388 5.85231 105.588 6.37215C105.852 7.08899 105.992 7.84599 106.001 8.61026C106.058 9.8814 106.071 10.2624 106.071 13.4802C106.071 16.6979 106.059 17.0789 106.001 18.3501C105.992 19.1143 105.852 19.8713 105.588 20.5882C105.388 21.108 105.082 21.5801 104.69 21.9741C104.298 22.3681 103.828 22.6752 103.31 22.8756C102.596 23.1409 101.843 23.2812 101.082 23.2906C99.8164 23.3479 99.437 23.3606 96.2324 23.3606C93.0279 23.3606 92.6484 23.3485 91.3833 23.2906C90.6223 23.2812 89.8685 23.1409 89.1547 22.8756C88.6371 22.6752 88.167 22.3681 87.7747 21.9741C87.3824 21.5801 87.0766 21.108 86.877 20.5882C86.6129 19.8713 86.4732 19.1143 86.4639 18.3501C86.4067 17.0789 86.3941 16.6979 86.3941 13.4802C86.3941 10.2624 86.4061 9.8814 86.4639 8.61026C86.4732 7.84599 86.6129 7.08899 86.877 6.37215C87.0766 5.85231 87.3824 5.38021 87.7747 4.98625C88.167 4.59228 88.6371 4.28517 89.1547 4.08469C89.8685 3.81947 90.6223 3.67913 91.3833 3.66978C92.649 3.61239 93.0284 3.59976 96.2324 3.59976ZM96.2324 1.42822C92.9753 1.42822 92.565 1.442 91.285 1.50053C90.289 1.52043 89.3036 1.70981 88.3707 2.06063C87.5704 2.36345 86.8456 2.83798 86.2467 3.45113C85.6356 4.05277 85.1627 4.78114 84.861 5.58537C84.5117 6.52228 84.3231 7.5119 84.3033 8.51213C84.2461 9.79646 84.2324 10.2085 84.2324 13.4796C84.2324 16.7507 84.2461 17.1627 84.3044 18.4482C84.3242 19.4484 84.5128 20.4381 84.8621 21.375C85.1635 22.1791 85.636 22.9074 86.2467 23.5092C86.8459 24.1225 87.5712 24.597 88.3719 24.8997C89.3048 25.2505 90.2902 25.4399 91.2861 25.4598C92.5661 25.5172 92.9747 25.5321 96.2336 25.5321C99.4924 25.5321 99.901 25.5183 101.181 25.4598C102.177 25.4399 103.162 25.2505 104.095 24.8997C104.892 24.5895 105.616 24.1157 106.22 23.5085C106.824 22.9014 107.295 22.1743 107.604 21.3738C107.953 20.4369 108.142 19.4473 108.162 18.447C108.219 17.1627 108.232 16.7507 108.232 13.4796C108.232 10.2085 108.219 9.79646 108.16 8.51098C108.141 7.51075 107.952 6.52113 107.603 5.58422C107.301 4.7801 106.829 4.05173 106.218 3.44998C105.619 2.8367 104.894 2.36215 104.093 2.05948C103.16 1.70866 102.175 1.51928 101.179 1.49938C99.8998 1.442 99.4896 1.42822 96.2324 1.42822Z" fill="white"/>
<path d="M96.2346 7.29248C95.0158 7.29248 93.8244 7.65544 92.811 8.33546C91.7976 9.01548 91.0078 9.98202 90.5413 11.1129C90.0749 12.2437 89.9529 13.488 90.1907 14.6885C90.4284 15.889 91.0153 16.9917 91.8772 17.8572C92.739 18.7227 93.837 19.3121 95.0324 19.5509C96.2277 19.7897 97.4667 19.6671 98.5928 19.1987C99.7188 18.7303 100.681 17.9371 101.358 16.9194C102.035 15.9017 102.397 14.7052 102.397 13.4812C102.397 11.8398 101.748 10.2657 100.592 9.1051C99.4363 7.9445 97.8689 7.29248 96.2346 7.29248ZM96.2346 17.4983C95.4434 17.4983 94.6701 17.2627 94.0123 16.8213C93.3545 16.3799 92.8418 15.7525 92.539 15.0184C92.2363 14.2844 92.1571 13.4767 92.3114 12.6975C92.4658 11.9182 92.8467 11.2024 93.4061 10.6406C93.9655 10.0788 94.6783 9.69621 95.4542 9.54121C96.2301 9.38621 97.0344 9.46576 97.7653 9.76981C98.4962 10.0739 99.1209 10.5887 99.5604 11.2494C100 11.91 100.235 12.6866 100.235 13.4812C100.235 14.5466 99.8131 15.5683 99.063 16.3217C98.3128 17.0751 97.2954 17.4983 96.2346 17.4983Z" fill="white"/>
<path d="M102.639 8.49292C103.435 8.49292 104.079 7.84545 104.079 7.04675C104.079 6.24806 103.435 5.60059 102.639 5.60059C101.844 5.60059 101.199 6.24806 101.199 7.04675C101.199 7.84545 101.844 8.49292 102.639 8.49292Z" fill="white"/>
<path fill-rule="evenodd" clip-rule="evenodd" d="M202.039 23.5236H197.887V16.9991C197.887 15.4431 197.861 13.4416 195.73 13.4416C193.57 13.4416 193.24 15.1373 193.24 16.8875V23.5236H189.092V10.1065H193.073V11.941H193.13C193.683 10.8858 195.038 9.77348 197.058 9.77348C201.262 9.77348 202.039 12.5516 202.039 16.1653V23.5236ZM184.411 8.27371C183.077 8.27371 182.002 7.19039 182.002 5.85492C182.002 4.52033 183.077 3.43701 184.411 3.43701C185.739 3.43701 186.818 4.52033 186.818 5.85492C186.818 7.19039 185.739 8.27371 184.411 8.27371ZM186.488 23.5236H182.332V10.1065H186.488V23.5236Z" fill="white"/>
<g clip-path="url(#clip0_1136_138)">
<path d="M145.669 2.68143C145.639 2.34093 145.465 1.06143 144.522 0.883934C144.296 0.841434 143.882 1.09443 144.815 1.76743C144.713 1.69143 143.897 1.10593 143.722 1.70443C143.679 1.85043 143.582 2.12443 144.501 2.37893C144.501 2.37893 143.719 2.12643 143.682 2.58743C143.929 2.55093 144.179 2.52543 144.435 2.52543C144.858 2.52543 145.27 2.58293 145.669 2.68143Z" fill="white"/>
<path d="M149.847 9.87239C149.727 9.47489 149.447 7.83739 149.447 7.83739C149.022 5.10239 146.961 3.02539 144.477 3.02539C141.686 3.02539 139.423 5.64539 139.423 8.87739C139.423 9.09739 139.437 9.31339 139.458 9.52689C139.489 9.52989 139.52 9.53739 139.549 9.55289C140.714 10.1454 141.789 12.1249 141.337 13.5049C141.095 14.2444 140.383 15.0284 138.458 15.0284C138.053 15.0284 137.591 14.9914 137.072 14.9144C135.984 15.0289 136.231 15.7934 136.231 15.7934C137.042 18.2254 140.009 19.1114 141.379 19.3964L142.088 21.5254H141.435C141.297 21.5254 141.185 21.6374 141.185 21.7754C141.185 21.9134 141.297 22.0254 141.435 22.0254H142.332L143.259 22.9524C143.307 23.0009 143.371 23.0254 143.435 23.0254C143.499 23.0254 143.563 23.0009 143.612 22.9524C143.71 22.8549 143.71 22.6964 143.612 22.5989L143.039 22.0254H143.935C144.073 22.0254 144.185 21.9134 144.185 21.7754C144.185 21.6374 144.073 21.5254 143.935 21.5254H142.615L141.939 19.4974C142.025 19.5099 142.083 19.5174 142.083 19.5174C143.238 19.7099 144.231 19.6884 145.091 19.5324L145.588 21.0254H144.935C144.797 21.0254 144.685 21.1374 144.685 21.2754C144.685 21.4134 144.797 21.5254 144.935 21.5254H145.832L146.759 22.4524C146.807 22.5009 146.871 22.5254 146.935 22.5254C146.999 22.5254 147.063 22.5009 147.112 22.4524C147.21 22.3549 147.21 22.1964 147.112 22.0989L146.539 21.5254H147.435C147.573 21.5254 147.685 21.4134 147.685 21.2754C147.685 21.1374 147.573 21.0254 147.435 21.0254H146.115L145.582 19.4264C147.566 18.9149 148.743 17.6454 149.387 16.6394C150.04 15.3019 150.809 13.0814 149.847 9.87239Z" fill="white"/>
<path d="M140.862 13.3491C141.239 12.1976 140.32 10.6281 139.462 10.0806C138.758 11.0736 137.515 12.9771 137.193 14.4226C139.233 14.7141 140.537 14.3411 140.862 13.3491Z" fill="white"/>
<path d="M150.51 10.7656C150.781 12.5991 150.698 14.0571 150.44 15.2036C152.451 14.7991 152.143 12.7701 150.51 10.7656Z" fill="white"/>
<path d="M144.117 8.52539C144.393 8.52539 144.617 8.30153 144.617 8.02539C144.617 7.74925 144.393 7.52539 144.117 7.52539C143.841 7.52539 143.617 7.74925 143.617 8.02539C143.617 8.30153 143.841 8.52539 144.117 8.52539Z" fill="#212121"/>
<path d="M147.617 8.52539C147.893 8.52539 148.117 8.30153 148.117 8.02539C148.117 7.74925 147.893 7.52539 147.617 7.52539C147.341 7.52539 147.117 7.74925 147.117 8.02539C147.117 8.30153 147.341 8.52539 147.617 8.52539Z" fill="#212121"/>
<path d="M145.058 9.1784L145.823 8.8009C145.859 8.7834 145.9 8.7839 145.936 8.8019L146.673 9.1809C146.762 9.2269 146.763 9.3549 146.675 9.4024L145.951 9.7899C145.915 9.8089 145.873 9.8099 145.836 9.7914L145.058 9.4024C144.965 9.3559 144.965 9.2239 145.058 9.1784Z" fill="#C62828"/>
</g>
<defs>
<clipPath id="clip0_1136_138">
<rect width="24" height="24" fill="white" transform="translate(132.117 0.0253906)"/>
</clipPath>
</defs>
</svg>
