<svg width="61" height="60" viewBox="0 0 61 60" fill="none" xmlns="http://www.w3.org/2000/svg">
<circle cx="30.5" cy="30" r="30" fill="#81378F"/>
<g clip-path="url(#clip0_1136_224)">
<path d="M30.9627 15.2305C31.5444 15.3799 32.0999 15.5803 32.573 15.9748C33.1034 16.4227 33.4772 17.0282 33.6399 17.7032C33.8025 18.3781 33.7457 19.0874 33.4776 19.7278C32.922 21.0307 31.5244 21.8474 30.1413 21.6779C28.605 21.4899 27.3537 20.2017 27.2767 18.7285C27.1888 17.045 28.2267 15.6519 29.8362 15.2921C29.8894 15.2806 29.9549 15.3014 29.9826 15.2305H30.9627Z" fill="white"/>
<path d="M34.7781 44.7455C34.0392 44.7524 33.5245 44.4095 33.207 43.7438C32.9374 43.1821 32.8788 42.5681 32.7571 41.9717C32.2609 39.5462 31.8117 37.1099 31.0258 34.7537C30.9482 34.4973 30.8376 34.252 30.6968 34.0241C30.5319 33.7729 30.4101 33.7714 30.2514 34.0241C30.008 34.4178 29.8808 34.8616 29.7483 35.3C29.1858 37.1615 28.8122 39.0669 28.4261 40.9693C28.272 41.7475 28.1464 42.5341 27.9523 43.3031C27.7743 44.0073 27.376 44.5482 26.6016 44.7146C25.5561 44.9396 24.549 44.3479 24.3587 43.3863C24.2817 43.0057 24.4034 42.642 24.4689 42.2776C25.0185 39.2254 25.5728 36.1745 26.1316 33.1249C26.3789 31.7658 26.5169 30.392 26.6864 29.0228C26.7206 28.7075 26.7152 28.3891 26.6702 28.0751C26.6147 27.636 26.3813 27.3486 25.9767 27.2083C25.3449 26.9895 24.7085 26.7846 24.0698 26.5842C22.8855 26.2121 21.6944 25.86 20.514 25.4747C20.02 25.3201 19.5539 25.0876 19.1333 24.7859C17.9559 23.9206 18.6317 22.1516 19.4869 21.7856C19.8359 21.6369 20.1803 21.6569 20.524 21.7625C22.9865 22.5123 25.5058 23.0612 28.0571 23.4036C30.0133 23.6641 31.9596 23.5678 33.9059 23.258C36.0865 22.9013 38.2439 22.4146 40.3664 21.8003C41.4089 21.5036 42.1694 21.9544 42.4313 23.0192C42.6401 23.8667 42.3874 24.487 41.6316 24.9554C40.9666 25.3684 40.2116 25.5641 39.4842 25.823C38.1528 26.2968 36.816 26.7537 35.4823 27.2183C35.4461 27.2314 35.4114 27.2484 35.376 27.263C34.3227 27.6968 34.1902 27.8448 34.2865 29.0174C34.466 31.1948 34.8382 33.3476 35.255 35.4896C35.6857 37.707 36.0871 39.9299 36.4947 42.152C36.5617 42.518 36.6927 42.8801 36.6488 43.2576C36.5617 44.0898 35.886 44.69 35.0046 44.7354C34.9322 44.7485 34.8551 44.7455 34.7781 44.7455Z" fill="white"/>
</g>
<defs>
<clipPath id="clip0_1136_224">
<rect width="24" height="29.5383" fill="white" transform="translate(18.5 15.2305)"/>
</clipPath>
</defs>
</svg>
